<?xml version="1.0" encoding="UTF-8" standalone="no"?>
<!DOCTYPE svg PUBLIC "-//W3C//DTD SVG 1.1//EN"
 "http://www.w3.org/Graphics/SVG/1.1/DTD/svg11.dtd">
<!-- Generated by graphviz version 2.40.1 (20161225.0304)
 -->
<!-- Title: %3 Pages: 1 -->
<svg width="3312pt" height="566pt"
 viewBox="0.00 0.00 3312.14 566.00" xmlns="http://www.w3.org/2000/svg" xmlns:xlink="http://www.w3.org/1999/xlink">
<g id="graph0" class="graph" transform="scale(1 1) rotate(0) translate(4 562)">
<title>%3</title>
<polygon fill="#ffffff" stroke="transparent" points="-4,4 -4,-562 3308.1355,-562 3308.1355,4 -4,4"/>
<!-- 0 -->
<g id="node1" class="node">
<title>0</title>
<ellipse fill="none" stroke="#000000" cx="1503.9429" cy="-540" rx="40.0939" ry="18"/>
<text text-anchor="middle" x="1503.9429" y="-536.3" font-family="Times,serif" font-size="14.00" fill="#000000">Sex&lt;0.5</text>
</g>
<!-- 1 -->
<g id="node2" class="node">
<title>1</title>
<ellipse fill="none" stroke="#000000" cx="1117.9429" cy="-453" rx="49.2915" ry="18"/>
<text text-anchor="middle" x="1117.9429" y="-449.3" font-family="Times,serif" font-size="14.00" fill="#000000">Pclass&lt;2.5</text>
</g>
<!-- 0&#45;&gt;1 -->
<g id="edge1" class="edge">
<title>0&#45;&gt;1</title>
<path fill="none" stroke="#0000ff" d="M1467.629,-531.8153C1398.7878,-516.2992 1249.1028,-482.5619 1169.7458,-464.6758"/>
<polygon fill="#0000ff" stroke="#0000ff" points="1170.4861,-461.2549 1159.9613,-462.4705 1168.947,-468.0836 1170.4861,-461.2549"/>
<text text-anchor="middle" x="1369.4429" y="-492.8" font-family="Times,serif" font-size="14.00" fill="#000000">yes, missing</text>
</g>
<!-- 2 -->
<g id="node3" class="node">
<title>2</title>
<ellipse fill="none" stroke="#000000" cx="1908.9429" cy="-453" rx="41.6928" ry="18"/>
<text text-anchor="middle" x="1908.9429" y="-449.3" font-family="Times,serif" font-size="14.00" fill="#000000">Cabin&lt;6</text>
</g>
<!-- 0&#45;&gt;2 -->
<g id="edge2" class="edge">
<title>0&#45;&gt;2</title>
<path fill="none" stroke="#ff0000" d="M1540.5983,-532.1259C1614.1696,-516.3217 1779.7538,-480.7517 1861.479,-463.196"/>
<polygon fill="#ff0000" stroke="#ff0000" points="1862.4493,-466.5674 1871.4911,-461.0452 1860.9791,-459.7236 1862.4493,-466.5674"/>
<text text-anchor="middle" x="1737.9429" y="-492.8" font-family="Times,serif" font-size="14.00" fill="#000000">no</text>
</g>
<!-- 3 -->
<g id="node4" class="node">
<title>3</title>
<ellipse fill="none" stroke="#000000" cx="891.9429" cy="-366" rx="42.4939" ry="18"/>
<text text-anchor="middle" x="891.9429" y="-362.3" font-family="Times,serif" font-size="14.00" fill="#000000">Age&lt;4.5</text>
</g>
<!-- 1&#45;&gt;3 -->
<g id="edge3" class="edge">
<title>1&#45;&gt;3</title>
<path fill="none" stroke="#0000ff" d="M1083.6184,-439.7866C1043.0941,-424.1865 975.7701,-398.2698 932.6517,-381.6711"/>
<polygon fill="#0000ff" stroke="#0000ff" points="933.8958,-378.3997 923.306,-378.0734 931.381,-384.9324 933.8958,-378.3997"/>
<text text-anchor="middle" x="1053.4429" y="-405.8" font-family="Times,serif" font-size="14.00" fill="#000000">yes, missing</text>
</g>
<!-- 4 -->
<g id="node5" class="node">
<title>4</title>
<ellipse fill="none" stroke="#000000" cx="1117.9429" cy="-366" rx="73.387" ry="18"/>
<text text-anchor="middle" x="1117.9429" y="-362.3" font-family="Times,serif" font-size="14.00" fill="#000000">Fare&lt;23.3500004</text>
</g>
<!-- 1&#45;&gt;4 -->
<g id="edge4" class="edge">
<title>1&#45;&gt;4</title>
<path fill="none" stroke="#ff0000" d="M1117.9429,-434.9735C1117.9429,-423.1918 1117.9429,-407.5607 1117.9429,-394.1581"/>
<polygon fill="#ff0000" stroke="#ff0000" points="1121.443,-394.0033 1117.9429,-384.0034 1114.443,-394.0034 1121.443,-394.0033"/>
<text text-anchor="middle" x="1124.9429" y="-405.8" font-family="Times,serif" font-size="14.00" fill="#000000">no</text>
</g>
<!-- 5 -->
<g id="node26" class="node">
<title>5</title>
<ellipse fill="none" stroke="#000000" cx="1908.9429" cy="-366" rx="72.5877" ry="18"/>
<text text-anchor="middle" x="1908.9429" y="-362.3" font-family="Times,serif" font-size="14.00" fill="#000000">Age&lt;42.5929794</text>
</g>
<!-- 2&#45;&gt;5 -->
<g id="edge25" class="edge">
<title>2&#45;&gt;5</title>
<path fill="none" stroke="#0000ff" d="M1908.9429,-434.9735C1908.9429,-423.1918 1908.9429,-407.5607 1908.9429,-394.1581"/>
<polygon fill="#0000ff" stroke="#0000ff" points="1912.443,-394.0033 1908.9429,-384.0034 1905.443,-394.0034 1912.443,-394.0033"/>
<text text-anchor="middle" x="1943.4429" y="-405.8" font-family="Times,serif" font-size="14.00" fill="#000000">yes, missing</text>
</g>
<!-- 6 -->
<g id="node27" class="node">
<title>6</title>
<ellipse fill="none" stroke="#000000" cx="2376.9429" cy="-366" rx="42.4939" ry="18"/>
<text text-anchor="middle" x="2376.9429" y="-362.3" font-family="Times,serif" font-size="14.00" fill="#000000">Age&lt;9.5</text>
</g>
<!-- 2&#45;&gt;6 -->
<g id="edge26" class="edge">
<title>2&#45;&gt;6</title>
<path fill="none" stroke="#ff0000" d="M1947.2413,-445.8804C2031.8289,-430.1558 2234.4881,-392.482 2328.0635,-375.0866"/>
<polygon fill="#ff0000" stroke="#ff0000" points="2328.9235,-378.4867 2338.1153,-373.2179 2327.644,-371.6046 2328.9235,-378.4867"/>
<text text-anchor="middle" x="2178.9429" y="-405.8" font-family="Times,serif" font-size="14.00" fill="#000000">no</text>
</g>
<!-- 7 -->
<g id="node6" class="node">
<title>7</title>
<ellipse fill="none" stroke="#000000" cx="718.9429" cy="-279" rx="79.8859" ry="18"/>
<text text-anchor="middle" x="718.9429" y="-275.3" font-family="Times,serif" font-size="14.00" fill="#000000">leaf=0.0250000004</text>
</g>
<!-- 3&#45;&gt;7 -->
<g id="edge5" class="edge">
<title>3&#45;&gt;7</title>
<path fill="none" stroke="#0000ff" d="M864.1678,-352.4118C850.5221,-345.7082 833.8478,-337.4755 818.9429,-330 799.6581,-320.3278 778.3522,-309.4838 760.3794,-300.2901"/>
<polygon fill="#0000ff" stroke="#0000ff" points="761.8092,-297.0901 751.3129,-295.6478 758.6188,-303.3209 761.8092,-297.0901"/>
<text text-anchor="middle" x="853.4429" y="-318.8" font-family="Times,serif" font-size="14.00" fill="#000000">yes, missing</text>
</g>
<!-- 8 -->
<g id="node7" class="node">
<title>8</title>
<ellipse fill="none" stroke="#000000" cx="891.9429" cy="-279" rx="75.2868" ry="18"/>
<text text-anchor="middle" x="891.9429" y="-275.3" font-family="Times,serif" font-size="14.00" fill="#000000">leaf=0.087730065</text>
</g>
<!-- 3&#45;&gt;8 -->
<g id="edge6" class="edge">
<title>3&#45;&gt;8</title>
<path fill="none" stroke="#ff0000" d="M891.9429,-347.9735C891.9429,-336.1918 891.9429,-320.5607 891.9429,-307.1581"/>
<polygon fill="#ff0000" stroke="#ff0000" points="895.443,-307.0033 891.9429,-297.0034 888.443,-307.0034 895.443,-307.0033"/>
<text text-anchor="middle" x="898.9429" y="-318.8" font-family="Times,serif" font-size="14.00" fill="#000000">no</text>
</g>
<!-- 9 -->
<g id="node8" class="node">
<title>9</title>
<ellipse fill="none" stroke="#000000" cx="1057.9429" cy="-279" rx="72.5877" ry="18"/>
<text text-anchor="middle" x="1057.9429" y="-275.3" font-family="Times,serif" font-size="14.00" fill="#000000">Age&lt;27.7937698</text>
</g>
<!-- 4&#45;&gt;9 -->
<g id="edge7" class="edge">
<title>4&#45;&gt;9</title>
<path fill="none" stroke="#0000ff" d="M1105.5109,-347.9735C1097.0637,-335.7252 1085.7474,-319.3165 1076.2716,-305.5766"/>
<polygon fill="#0000ff" stroke="#0000ff" points="1078.9176,-303.2484 1070.359,-297.0034 1073.1551,-307.2226 1078.9176,-303.2484"/>
<text text-anchor="middle" x="1126.4429" y="-318.8" font-family="Times,serif" font-size="14.00" fill="#000000">yes, missing</text>
</g>
<!-- 10 -->
<g id="node9" class="node">
<title>10</title>
<ellipse fill="none" stroke="#000000" cx="1206.9429" cy="-279" rx="58.4896" ry="18"/>
<text text-anchor="middle" x="1206.9429" y="-275.3" font-family="Times,serif" font-size="14.00" fill="#000000">Ticket&lt;456.5</text>
</g>
<!-- 4&#45;&gt;10 -->
<g id="edge8" class="edge">
<title>4&#45;&gt;10</title>
<path fill="none" stroke="#ff0000" d="M1142.7193,-348.6923C1150.156,-343.0639 1158.1395,-336.5674 1164.9429,-330 1172.8653,-322.3524 1180.7521,-313.2686 1187.516,-304.9012"/>
<polygon fill="#ff0000" stroke="#ff0000" points="1190.4198,-306.8713 1193.8653,-296.8524 1184.9239,-302.5359 1190.4198,-306.8713"/>
<text text-anchor="middle" x="1185.9429" y="-318.8" font-family="Times,serif" font-size="14.00" fill="#000000">no</text>
</g>
<!-- 15 -->
<g id="node10" class="node">
<title>15</title>
<ellipse fill="none" stroke="#000000" cx="546.9429" cy="-192" rx="73.387" ry="18"/>
<text text-anchor="middle" x="546.9429" y="-188.3" font-family="Times,serif" font-size="14.00" fill="#000000">Fare&lt;7.98750019</text>
</g>
<!-- 9&#45;&gt;15 -->
<g id="edge9" class="edge">
<title>9&#45;&gt;15</title>
<path fill="none" stroke="#0000ff" d="M1004.2198,-266.751C994.814,-264.737 985.107,-262.7413 975.9429,-261 851.8501,-237.4202 706.5569,-215.1671 620.8853,-202.593"/>
<polygon fill="#0000ff" stroke="#0000ff" points="621.14,-199.093 610.7386,-201.1081 620.1263,-206.0193 621.14,-199.093"/>
<text text-anchor="middle" x="905.4429" y="-231.8" font-family="Times,serif" font-size="14.00" fill="#000000">yes, missing</text>
</g>
<!-- 16 -->
<g id="node11" class="node">
<title>16</title>
<ellipse fill="none" stroke="#000000" cx="1057.9429" cy="-192" rx="60.3893" ry="18"/>
<text text-anchor="middle" x="1057.9429" y="-188.3" font-family="Times,serif" font-size="14.00" fill="#000000">Fare&lt;14.8729</text>
</g>
<!-- 9&#45;&gt;16 -->
<g id="edge10" class="edge">
<title>9&#45;&gt;16</title>
<path fill="none" stroke="#ff0000" d="M1057.9429,-260.9735C1057.9429,-249.1918 1057.9429,-233.5607 1057.9429,-220.1581"/>
<polygon fill="#ff0000" stroke="#ff0000" points="1061.443,-220.0033 1057.9429,-210.0034 1054.443,-220.0034 1061.443,-220.0033"/>
<text text-anchor="middle" x="1064.9429" y="-231.8" font-family="Times,serif" font-size="14.00" fill="#000000">no</text>
</g>
<!-- 17 -->
<g id="node24" class="node">
<title>17</title>
<ellipse fill="none" stroke="#000000" cx="1189.9429" cy="-192" rx="36.2938" ry="18"/>
<text text-anchor="middle" x="1189.9429" y="-188.3" font-family="Times,serif" font-size="14.00" fill="#000000">leaf=&#45;0</text>
</g>
<!-- 10&#45;&gt;17 -->
<g id="edge23" class="edge">
<title>10&#45;&gt;17</title>
<path fill="none" stroke="#0000ff" d="M1203.4205,-260.9735C1201.1183,-249.1918 1198.064,-233.5607 1195.4451,-220.1581"/>
<polygon fill="#0000ff" stroke="#0000ff" points="1198.8137,-219.1465 1193.4608,-210.0034 1191.9436,-220.489 1198.8137,-219.1465"/>
<text text-anchor="middle" x="1234.4429" y="-231.8" font-family="Times,serif" font-size="14.00" fill="#000000">yes, missing</text>
</g>
<!-- 18 -->
<g id="node25" class="node">
<title>18</title>
<ellipse fill="none" stroke="#000000" cx="1327.9429" cy="-192" rx="83.3857" ry="18"/>
<text text-anchor="middle" x="1327.9429" y="-188.3" font-family="Times,serif" font-size="14.00" fill="#000000">leaf=&#45;0.0769230798</text>
</g>
<!-- 10&#45;&gt;18 -->
<g id="edge24" class="edge">
<title>10&#45;&gt;18</title>
<path fill="none" stroke="#ff0000" d="M1238.7942,-263.6778C1249.9581,-257.7812 1262.3468,-250.621 1272.9429,-243 1283.6798,-235.2778 1294.554,-225.6557 1303.7668,-216.8567"/>
<polygon fill="#ff0000" stroke="#ff0000" points="1306.3666,-219.21 1311.0752,-209.7189 1301.4756,-214.2021 1306.3666,-219.21"/>
<text text-anchor="middle" x="1297.9429" y="-231.8" font-family="Times,serif" font-size="14.00" fill="#000000">no</text>
</g>
<!-- 27 -->
<g id="node12" class="node">
<title>27</title>
<ellipse fill="none" stroke="#000000" cx="257.9429" cy="-105" rx="58.4896" ry="18"/>
<text text-anchor="middle" x="257.9429" y="-101.3" font-family="Times,serif" font-size="14.00" fill="#000000">Ticket&lt;428.5</text>
</g>
<!-- 15&#45;&gt;27 -->
<g id="edge11" class="edge">
<title>15&#45;&gt;27</title>
<path fill="none" stroke="#0000ff" d="M500.5101,-178.0219C448.3876,-162.3311 364.0331,-136.9372 309.7938,-120.6091"/>
<polygon fill="#0000ff" stroke="#0000ff" points="310.6157,-117.2014 300.0312,-117.6702 308.5978,-123.9043 310.6157,-117.2014"/>
<text text-anchor="middle" x="454.4429" y="-144.8" font-family="Times,serif" font-size="14.00" fill="#000000">yes, missing</text>
</g>
<!-- 28 -->
<g id="node13" class="node">
<title>28</title>
<ellipse fill="none" stroke="#000000" cx="546.9429" cy="-105" rx="73.387" ry="18"/>
<text text-anchor="middle" x="546.9429" y="-101.3" font-family="Times,serif" font-size="14.00" fill="#000000">Fare&lt;10.8249998</text>
</g>
<!-- 15&#45;&gt;28 -->
<g id="edge12" class="edge">
<title>15&#45;&gt;28</title>
<path fill="none" stroke="#ff0000" d="M546.9429,-173.9735C546.9429,-162.1918 546.9429,-146.5607 546.9429,-133.1581"/>
<polygon fill="#ff0000" stroke="#ff0000" points="550.443,-133.0033 546.9429,-123.0034 543.443,-133.0034 550.443,-133.0033"/>
<text text-anchor="middle" x="553.9429" y="-144.8" font-family="Times,serif" font-size="14.00" fill="#000000">no</text>
</g>
<!-- 29 -->
<g id="node18" class="node">
<title>29</title>
<ellipse fill="none" stroke="#000000" cx="976.9429" cy="-105" rx="69.5877" ry="18"/>
<text text-anchor="middle" x="976.9429" y="-101.3" font-family="Times,serif" font-size="14.00" fill="#000000">Fare&lt;8.6729002</text>
</g>
<!-- 16&#45;&gt;29 -->
<g id="edge17" class="edge">
<title>16&#45;&gt;29</title>
<path fill="none" stroke="#0000ff" d="M1041.2982,-174.4624C1035.7615,-168.6057 1029.5728,-162.0345 1023.9429,-156 1016.1001,-147.5935 1007.5692,-138.3629 999.9547,-130.0926"/>
<polygon fill="#0000ff" stroke="#0000ff" points="1002.3324,-127.5075 992.9872,-122.5157 997.1798,-132.2457 1002.3324,-127.5075"/>
<text text-anchor="middle" x="1058.4429" y="-144.8" font-family="Times,serif" font-size="14.00" fill="#000000">yes, missing</text>
</g>
<!-- 30 -->
<g id="node19" class="node">
<title>30</title>
<ellipse fill="none" stroke="#000000" cx="1160.9429" cy="-105" rx="72.5877" ry="18"/>
<text text-anchor="middle" x="1160.9429" y="-101.3" font-family="Times,serif" font-size="14.00" fill="#000000">Age&lt;32.3269653</text>
</g>
<!-- 16&#45;&gt;30 -->
<g id="edge18" class="edge">
<title>16&#45;&gt;30</title>
<path fill="none" stroke="#ff0000" d="M1078.2924,-174.8116C1093.7096,-161.7893 1115.0928,-143.7277 1132.2466,-129.2386"/>
<polygon fill="#ff0000" stroke="#ff0000" points="1134.9021,-131.5771 1140.2831,-122.4505 1130.3852,-126.2295 1134.9021,-131.5771"/>
<text text-anchor="middle" x="1122.9429" y="-144.8" font-family="Times,serif" font-size="14.00" fill="#000000">no</text>
</g>
<!-- 39 -->
<g id="node14" class="node">
<title>39</title>
<ellipse fill="none" stroke="#000000" cx="79.9429" cy="-18" rx="79.8859" ry="18"/>
<text text-anchor="middle" x="79.9429" y="-14.3" font-family="Times,serif" font-size="14.00" fill="#000000">leaf=0.0714285746</text>
</g>
<!-- 27&#45;&gt;39 -->
<g id="edge13" class="edge">
<title>27&#45;&gt;39</title>
<path fill="none" stroke="#0000ff" d="M226.5298,-89.6464C197.6432,-75.5277 154.5727,-54.4764 122.5853,-38.8421"/>
<polygon fill="#0000ff" stroke="#0000ff" points="123.9821,-35.6291 113.4609,-34.3824 120.9083,-41.9182 123.9821,-35.6291"/>
<text text-anchor="middle" x="214.4429" y="-57.8" font-family="Times,serif" font-size="14.00" fill="#000000">yes, missing</text>
</g>
<!-- 40 -->
<g id="node15" class="node">
<title>40</title>
<ellipse fill="none" stroke="#000000" cx="257.9429" cy="-18" rx="79.8859" ry="18"/>
<text text-anchor="middle" x="257.9429" y="-14.3" font-family="Times,serif" font-size="14.00" fill="#000000">leaf=0.0285714306</text>
</g>
<!-- 27&#45;&gt;40 -->
<g id="edge14" class="edge">
<title>27&#45;&gt;40</title>
<path fill="none" stroke="#ff0000" d="M257.9429,-86.9735C257.9429,-75.1918 257.9429,-59.5607 257.9429,-46.1581"/>
<polygon fill="#ff0000" stroke="#ff0000" points="261.443,-46.0033 257.9429,-36.0034 254.443,-46.0034 261.443,-46.0033"/>
<text text-anchor="middle" x="264.9429" y="-57.8" font-family="Times,serif" font-size="14.00" fill="#000000">no</text>
</g>
<!-- 41 -->
<g id="node16" class="node">
<title>41</title>
<ellipse fill="none" stroke="#000000" cx="434.9429" cy="-18" rx="78.7863" ry="18"/>
<text text-anchor="middle" x="434.9429" y="-14.3" font-family="Times,serif" font-size="14.00" fill="#000000">leaf=&#45;0.042857144</text>
</g>
<!-- 28&#45;&gt;41 -->
<g id="edge15" class="edge">
<title>28&#45;&gt;41</title>
<path fill="none" stroke="#0000ff" d="M524.8153,-87.8116C507.8223,-74.6117 484.164,-56.2342 465.3862,-41.6479"/>
<polygon fill="#0000ff" stroke="#0000ff" points="467.4523,-38.821 457.4079,-35.4505 463.1581,-44.3491 467.4523,-38.821"/>
<text text-anchor="middle" x="532.4429" y="-57.8" font-family="Times,serif" font-size="14.00" fill="#000000">yes, missing</text>
</g>
<!-- 42 -->
<g id="node17" class="node">
<title>42</title>
<ellipse fill="none" stroke="#000000" cx="611.9429" cy="-18" rx="79.8859" ry="18"/>
<text text-anchor="middle" x="611.9429" y="-14.3" font-family="Times,serif" font-size="14.00" fill="#000000">leaf=0.0333333351</text>
</g>
<!-- 28&#45;&gt;42 -->
<g id="edge16" class="edge">
<title>28&#45;&gt;42</title>
<path fill="none" stroke="#ff0000" d="M560.4109,-86.9735C569.6492,-74.6085 582.0552,-58.0036 592.3796,-44.1847"/>
<polygon fill="#ff0000" stroke="#ff0000" points="595.3107,-46.1093 598.4921,-36.0034 589.703,-41.9196 595.3107,-46.1093"/>
<text text-anchor="middle" x="590.9429" y="-57.8" font-family="Times,serif" font-size="14.00" fill="#000000">no</text>
</g>
<!-- 43 -->
<g id="node20" class="node">
<title>43</title>
<ellipse fill="none" stroke="#000000" cx="792.9429" cy="-18" rx="83.3857" ry="18"/>
<text text-anchor="middle" x="792.9429" y="-14.3" font-family="Times,serif" font-size="14.00" fill="#000000">leaf=&#45;0.0636363626</text>
</g>
<!-- 29&#45;&gt;43 -->
<g id="edge19" class="edge">
<title>29&#45;&gt;43</title>
<path fill="none" stroke="#0000ff" d="M943.1945,-89.0429C913.3554,-74.9342 869.6281,-54.2588 837.0313,-38.8461"/>
<polygon fill="#0000ff" stroke="#0000ff" points="838.2641,-35.5576 827.7276,-34.4471 835.2719,-41.8858 838.2641,-35.5576"/>
<text text-anchor="middle" x="931.4429" y="-57.8" font-family="Times,serif" font-size="14.00" fill="#000000">yes, missing</text>
</g>
<!-- 44 -->
<g id="node21" class="node">
<title>44</title>
<ellipse fill="none" stroke="#000000" cx="976.9429" cy="-18" rx="83.3857" ry="18"/>
<text text-anchor="middle" x="976.9429" y="-14.3" font-family="Times,serif" font-size="14.00" fill="#000000">leaf=&#45;0.0230769236</text>
</g>
<!-- 29&#45;&gt;44 -->
<g id="edge20" class="edge">
<title>29&#45;&gt;44</title>
<path fill="none" stroke="#ff0000" d="M976.9429,-86.9735C976.9429,-75.1918 976.9429,-59.5607 976.9429,-46.1581"/>
<polygon fill="#ff0000" stroke="#ff0000" points="980.443,-46.0033 976.9429,-36.0034 973.443,-46.0034 980.443,-46.0033"/>
<text text-anchor="middle" x="983.9429" y="-57.8" font-family="Times,serif" font-size="14.00" fill="#000000">no</text>
</g>
<!-- 45 -->
<g id="node22" class="node">
<title>45</title>
<ellipse fill="none" stroke="#000000" cx="1160.9429" cy="-18" rx="83.3857" ry="18"/>
<text text-anchor="middle" x="1160.9429" y="-14.3" font-family="Times,serif" font-size="14.00" fill="#000000">leaf=&#45;0.0200000014</text>
</g>
<!-- 30&#45;&gt;45 -->
<g id="edge21" class="edge">
<title>30&#45;&gt;45</title>
<path fill="none" stroke="#0000ff" d="M1160.9429,-86.9735C1160.9429,-75.1918 1160.9429,-59.5607 1160.9429,-46.1581"/>
<polygon fill="#0000ff" stroke="#0000ff" points="1164.443,-46.0033 1160.9429,-36.0034 1157.443,-46.0034 1164.443,-46.0033"/>
<text text-anchor="middle" x="1195.4429" y="-57.8" font-family="Times,serif" font-size="14.00" fill="#000000">yes, missing</text>
</g>
<!-- 46 -->
<g id="node23" class="node">
<title>46</title>
<ellipse fill="none" stroke="#000000" cx="1341.9429" cy="-18" rx="79.8859" ry="18"/>
<text text-anchor="middle" x="1341.9429" y="-14.3" font-family="Times,serif" font-size="14.00" fill="#000000">leaf=0.0333333351</text>
</g>
<!-- 30&#45;&gt;46 -->
<g id="edge22" class="edge">
<title>30&#45;&gt;46</title>
<path fill="none" stroke="#ff0000" d="M1194.5634,-88.8399C1223.9669,-74.7067 1266.8417,-54.0984 1298.7749,-38.7492"/>
<polygon fill="#ff0000" stroke="#ff0000" points="1300.3916,-41.8556 1307.8882,-34.3688 1297.359,-35.5465 1300.3916,-41.8556"/>
<text text-anchor="middle" x="1269.9429" y="-57.8" font-family="Times,serif" font-size="14.00" fill="#000000">no</text>
</g>
<!-- 11 -->
<g id="node28" class="node">
<title>11</title>
<ellipse fill="none" stroke="#000000" cx="1851.9429" cy="-279" rx="69.5877" ry="18"/>
<text text-anchor="middle" x="1851.9429" y="-275.3" font-family="Times,serif" font-size="14.00" fill="#000000">Fare&lt;7.9000001</text>
</g>
<!-- 5&#45;&gt;11 -->
<g id="edge27" class="edge">
<title>5&#45;&gt;11</title>
<path fill="none" stroke="#0000ff" d="M1897.1325,-347.9735C1889.1077,-335.7252 1878.3572,-319.3165 1869.3551,-305.5766"/>
<polygon fill="#0000ff" stroke="#0000ff" points="1872.1461,-303.4499 1863.7382,-297.0034 1866.2909,-307.2861 1872.1461,-303.4499"/>
<text text-anchor="middle" x="1918.4429" y="-318.8" font-family="Times,serif" font-size="14.00" fill="#000000">yes, missing</text>
</g>
<!-- 12 -->
<g id="node29" class="node">
<title>12</title>
<ellipse fill="none" stroke="#000000" cx="1987.9429" cy="-279" rx="48.1917" ry="18"/>
<text text-anchor="middle" x="1987.9429" y="-275.3" font-family="Times,serif" font-size="14.00" fill="#000000">Cabin&lt;0.5</text>
</g>
<!-- 5&#45;&gt;12 -->
<g id="edge28" class="edge">
<title>5&#45;&gt;12</title>
<path fill="none" stroke="#ff0000" d="M1934.1168,-348.7176C1941.2717,-343.1861 1948.7852,-336.7367 1954.9429,-330 1961.6312,-322.6829 1967.857,-313.8631 1973.0583,-305.6307"/>
<polygon fill="#ff0000" stroke="#ff0000" points="1976.0828,-307.3931 1978.2735,-297.0272 1970.0967,-303.7645 1976.0828,-307.3931"/>
<text text-anchor="middle" x="1973.9429" y="-318.8" font-family="Times,serif" font-size="14.00" fill="#000000">no</text>
</g>
<!-- 13 -->
<g id="node44" class="node">
<title>13</title>
<ellipse fill="none" stroke="#000000" cx="2376.9429" cy="-279" rx="41.6928" ry="18"/>
<text text-anchor="middle" x="2376.9429" y="-275.3" font-family="Times,serif" font-size="14.00" fill="#000000">SibSp&lt;2</text>
</g>
<!-- 6&#45;&gt;13 -->
<g id="edge43" class="edge">
<title>6&#45;&gt;13</title>
<path fill="none" stroke="#0000ff" d="M2376.9429,-347.9735C2376.9429,-336.1918 2376.9429,-320.5607 2376.9429,-307.1581"/>
<polygon fill="#0000ff" stroke="#0000ff" points="2380.443,-307.0033 2376.9429,-297.0034 2373.443,-307.0034 2380.443,-307.0033"/>
<text text-anchor="middle" x="2411.4429" y="-318.8" font-family="Times,serif" font-size="14.00" fill="#000000">yes, missing</text>
</g>
<!-- 14 -->
<g id="node45" class="node">
<title>14</title>
<ellipse fill="none" stroke="#000000" cx="2665.9429" cy="-279" rx="58.4896" ry="18"/>
<text text-anchor="middle" x="2665.9429" y="-275.3" font-family="Times,serif" font-size="14.00" fill="#000000">Ticket&lt;114.5</text>
</g>
<!-- 6&#45;&gt;14 -->
<g id="edge44" class="edge">
<title>6&#45;&gt;14</title>
<path fill="none" stroke="#ff0000" d="M2411.516,-355.5922C2461.7948,-340.4563 2555.4666,-312.2576 2614.0484,-294.6222"/>
<polygon fill="#ff0000" stroke="#ff0000" points="2615.2814,-297.9063 2623.848,-291.6722 2613.2635,-291.2034 2615.2814,-297.9063"/>
<text text-anchor="middle" x="2545.9429" y="-318.8" font-family="Times,serif" font-size="14.00" fill="#000000">no</text>
</g>
<!-- 19 -->
<g id="node30" class="node">
<title>19</title>
<ellipse fill="none" stroke="#000000" cx="1702.9429" cy="-192" rx="83.3857" ry="18"/>
<text text-anchor="middle" x="1702.9429" y="-188.3" font-family="Times,serif" font-size="14.00" fill="#000000">leaf=&#45;0.0600000024</text>
</g>
<!-- 11&#45;&gt;19 -->
<g id="edge29" class="edge">
<title>11&#45;&gt;19</title>
<path fill="none" stroke="#0000ff" d="M1820.6946,-262.7372C1809.349,-256.6944 1796.4854,-249.6814 1784.9429,-243 1769.4428,-234.0277 1752.5998,-223.6626 1738.2337,-214.6296"/>
<polygon fill="#0000ff" stroke="#0000ff" points="1739.9666,-211.5844 1729.6431,-209.2018 1736.2275,-217.5021 1739.9666,-211.5844"/>
<text text-anchor="middle" x="1819.4429" y="-231.8" font-family="Times,serif" font-size="14.00" fill="#000000">yes, missing</text>
</g>
<!-- 20 -->
<g id="node31" class="node">
<title>20</title>
<ellipse fill="none" stroke="#000000" cx="1864.9429" cy="-192" rx="60.3893" ry="18"/>
<text text-anchor="middle" x="1864.9429" y="-188.3" font-family="Times,serif" font-size="14.00" fill="#000000">Fare&lt;39.5625</text>
</g>
<!-- 11&#45;&gt;20 -->
<g id="edge30" class="edge">
<title>11&#45;&gt;20</title>
<path fill="none" stroke="#ff0000" d="M1854.6365,-260.9735C1856.397,-249.1918 1858.7327,-233.5607 1860.7354,-220.1581"/>
<polygon fill="#ff0000" stroke="#ff0000" points="1864.2364,-220.4108 1862.2527,-210.0034 1857.3133,-219.3763 1864.2364,-220.4108"/>
<text text-anchor="middle" x="1866.9429" y="-231.8" font-family="Times,serif" font-size="14.00" fill="#000000">no</text>
</g>
<!-- 21 -->
<g id="node38" class="node">
<title>21</title>
<ellipse fill="none" stroke="#000000" cx="1984.9429" cy="-192" rx="36.2938" ry="18"/>
<text text-anchor="middle" x="1984.9429" y="-188.3" font-family="Times,serif" font-size="14.00" fill="#000000">leaf=&#45;0</text>
</g>
<!-- 12&#45;&gt;21 -->
<g id="edge37" class="edge">
<title>12&#45;&gt;21</title>
<path fill="none" stroke="#0000ff" d="M1987.3213,-260.9735C1986.915,-249.1918 1986.376,-233.5607 1985.9139,-220.1581"/>
<polygon fill="#0000ff" stroke="#0000ff" points="1989.4064,-219.8768 1985.5637,-210.0034 1982.4105,-220.1181 1989.4064,-219.8768"/>
<text text-anchor="middle" x="2021.4429" y="-231.8" font-family="Times,serif" font-size="14.00" fill="#000000">yes, missing</text>
</g>
<!-- 22 -->
<g id="node39" class="node">
<title>22</title>
<ellipse fill="none" stroke="#000000" cx="2111.9429" cy="-192" rx="72.5877" ry="18"/>
<text text-anchor="middle" x="2111.9429" y="-188.3" font-family="Times,serif" font-size="14.00" fill="#000000">Age&lt;47.7241287</text>
</g>
<!-- 12&#45;&gt;22 -->
<g id="edge38" class="edge">
<title>12&#45;&gt;22</title>
<path fill="none" stroke="#ff0000" d="M2020.3512,-265.436C2033.1941,-259.3985 2047.7695,-251.6846 2059.9429,-243 2070.2932,-235.616 2080.5347,-226.165 2089.1562,-217.4097"/>
<polygon fill="#ff0000" stroke="#ff0000" points="2091.8949,-219.61 2096.2776,-209.9642 2086.8362,-214.7716 2091.8949,-219.61"/>
<text text-anchor="middle" x="2084.9429" y="-231.8" font-family="Times,serif" font-size="14.00" fill="#000000">no</text>
</g>
<!-- 31 -->
<g id="node32" class="node">
<title>31</title>
<ellipse fill="none" stroke="#000000" cx="1697.9429" cy="-105" rx="47.3916" ry="18"/>
<text text-anchor="middle" x="1697.9429" y="-101.3" font-family="Times,serif" font-size="14.00" fill="#000000">Ticket&lt;45</text>
</g>
<!-- 20&#45;&gt;31 -->
<g id="edge31" class="edge">
<title>20&#45;&gt;31</title>
<path fill="none" stroke="#0000ff" d="M1834.7005,-176.245C1806.6756,-161.6452 1764.9139,-139.8891 1734.918,-124.2625"/>
<polygon fill="#0000ff" stroke="#0000ff" points="1736.5006,-121.1405 1726.0148,-119.6243 1733.2665,-127.3486 1736.5006,-121.1405"/>
<text text-anchor="middle" x="1826.4429" y="-144.8" font-family="Times,serif" font-size="14.00" fill="#000000">yes, missing</text>
</g>
<!-- 32 -->
<g id="node33" class="node">
<title>32</title>
<ellipse fill="none" stroke="#000000" cx="1878.9429" cy="-105" rx="73.387" ry="18"/>
<text text-anchor="middle" x="1878.9429" y="-101.3" font-family="Times,serif" font-size="14.00" fill="#000000">Fare&lt;52.2770996</text>
</g>
<!-- 20&#45;&gt;32 -->
<g id="edge32" class="edge">
<title>20&#45;&gt;32</title>
<path fill="none" stroke="#ff0000" d="M1867.8437,-173.9735C1869.7396,-162.1918 1872.255,-146.5607 1874.4117,-133.1581"/>
<polygon fill="#ff0000" stroke="#ff0000" points="1877.9125,-133.4324 1876.0458,-123.0034 1871.0014,-132.3203 1877.9125,-133.4324"/>
<text text-anchor="middle" x="1879.9429" y="-144.8" font-family="Times,serif" font-size="14.00" fill="#000000">no</text>
</g>
<!-- 47 -->
<g id="node34" class="node">
<title>47</title>
<ellipse fill="none" stroke="#000000" cx="1519.9429" cy="-18" rx="79.8859" ry="18"/>
<text text-anchor="middle" x="1519.9429" y="-14.3" font-family="Times,serif" font-size="14.00" fill="#000000">leaf=0.0111111114</text>
</g>
<!-- 31&#45;&gt;47 -->
<g id="edge33" class="edge">
<title>31&#45;&gt;47</title>
<path fill="none" stroke="#0000ff" d="M1668.5498,-90.6337C1639.7906,-76.5772 1595.6632,-55.0094 1562.9581,-39.0243"/>
<polygon fill="#0000ff" stroke="#0000ff" points="1564.1538,-35.7131 1553.6326,-34.4663 1561.08,-42.0021 1564.1538,-35.7131"/>
<text text-anchor="middle" x="1654.4429" y="-57.8" font-family="Times,serif" font-size="14.00" fill="#000000">yes, missing</text>
</g>
<!-- 48 -->
<g id="node35" class="node">
<title>48</title>
<ellipse fill="none" stroke="#000000" cx="1697.9429" cy="-18" rx="79.8859" ry="18"/>
<text text-anchor="middle" x="1697.9429" y="-14.3" font-family="Times,serif" font-size="14.00" fill="#000000">leaf=0.0636363626</text>
</g>
<!-- 31&#45;&gt;48 -->
<g id="edge34" class="edge">
<title>31&#45;&gt;48</title>
<path fill="none" stroke="#ff0000" d="M1697.9429,-86.9735C1697.9429,-75.1918 1697.9429,-59.5607 1697.9429,-46.1581"/>
<polygon fill="#ff0000" stroke="#ff0000" points="1701.443,-46.0033 1697.9429,-36.0034 1694.443,-46.0034 1701.443,-46.0033"/>
<text text-anchor="middle" x="1704.9429" y="-57.8" font-family="Times,serif" font-size="14.00" fill="#000000">no</text>
</g>
<!-- 49 -->
<g id="node36" class="node">
<title>49</title>
<ellipse fill="none" stroke="#000000" cx="1878.9429" cy="-18" rx="83.3857" ry="18"/>
<text text-anchor="middle" x="1878.9429" y="-14.3" font-family="Times,serif" font-size="14.00" fill="#000000">leaf=&#45;0.0500000007</text>
</g>
<!-- 32&#45;&gt;49 -->
<g id="edge35" class="edge">
<title>32&#45;&gt;49</title>
<path fill="none" stroke="#0000ff" d="M1878.9429,-86.9735C1878.9429,-75.1918 1878.9429,-59.5607 1878.9429,-46.1581"/>
<polygon fill="#0000ff" stroke="#0000ff" points="1882.443,-46.0033 1878.9429,-36.0034 1875.443,-46.0034 1882.443,-46.0033"/>
<text text-anchor="middle" x="1913.4429" y="-57.8" font-family="Times,serif" font-size="14.00" fill="#000000">yes, missing</text>
</g>
<!-- 50 -->
<g id="node37" class="node">
<title>50</title>
<ellipse fill="none" stroke="#000000" cx="2059.9429" cy="-18" rx="79.8859" ry="18"/>
<text text-anchor="middle" x="2059.9429" y="-14.3" font-family="Times,serif" font-size="14.00" fill="#000000">leaf=0.0133333346</text>
</g>
<!-- 32&#45;&gt;50 -->
<g id="edge36" class="edge">
<title>32&#45;&gt;50</title>
<path fill="none" stroke="#ff0000" d="M1912.5634,-88.8399C1941.9669,-74.7067 1984.8417,-54.0984 2016.7749,-38.7492"/>
<polygon fill="#ff0000" stroke="#ff0000" points="2018.3916,-41.8556 2025.8882,-34.3688 2015.359,-35.5465 2018.3916,-41.8556"/>
<text text-anchor="middle" x="1987.9429" y="-57.8" font-family="Times,serif" font-size="14.00" fill="#000000">no</text>
</g>
<!-- 33 -->
<g id="node40" class="node">
<title>33</title>
<ellipse fill="none" stroke="#000000" cx="2104.9429" cy="-105" rx="83.3857" ry="18"/>
<text text-anchor="middle" x="2104.9429" y="-101.3" font-family="Times,serif" font-size="14.00" fill="#000000">leaf=&#45;0.0764705911</text>
</g>
<!-- 22&#45;&gt;33 -->
<g id="edge39" class="edge">
<title>22&#45;&gt;33</title>
<path fill="none" stroke="#0000ff" d="M2110.4925,-173.9735C2109.5445,-162.1918 2108.2869,-146.5607 2107.2085,-133.1581"/>
<polygon fill="#0000ff" stroke="#0000ff" points="2110.6823,-132.6904 2106.3915,-123.0034 2103.7048,-133.2519 2110.6823,-132.6904"/>
<text text-anchor="middle" x="2143.4429" y="-144.8" font-family="Times,serif" font-size="14.00" fill="#000000">yes, missing</text>
</g>
<!-- 34 -->
<g id="node41" class="node">
<title>34</title>
<ellipse fill="none" stroke="#000000" cx="2245.9429" cy="-105" rx="39.7935" ry="18"/>
<text text-anchor="middle" x="2245.9429" y="-101.3" font-family="Times,serif" font-size="14.00" fill="#000000">Age&lt;53</text>
</g>
<!-- 22&#45;&gt;34 -->
<g id="edge40" class="edge">
<title>22&#45;&gt;34</title>
<path fill="none" stroke="#ff0000" d="M2146.17,-176.0969C2157.8021,-170.251 2170.6962,-163.2711 2181.9429,-156 2195.0001,-147.5584 2208.5895,-137.014 2219.8699,-127.7074"/>
<polygon fill="#ff0000" stroke="#ff0000" points="2222.2205,-130.3041 2227.6351,-121.1973 2217.7233,-124.9398 2222.2205,-130.3041"/>
<text text-anchor="middle" x="2209.9429" y="-144.8" font-family="Times,serif" font-size="14.00" fill="#000000">no</text>
</g>
<!-- 51 -->
<g id="node42" class="node">
<title>51</title>
<ellipse fill="none" stroke="#000000" cx="2241.9429" cy="-18" rx="84.485" ry="18"/>
<text text-anchor="middle" x="2241.9429" y="-14.3" font-family="Times,serif" font-size="14.00" fill="#000000">leaf=0.00769230817</text>
</g>
<!-- 34&#45;&gt;51 -->
<g id="edge41" class="edge">
<title>34&#45;&gt;51</title>
<path fill="none" stroke="#0000ff" d="M2245.1141,-86.9735C2244.5724,-75.1918 2243.8537,-59.5607 2243.2375,-46.1581"/>
<polygon fill="#0000ff" stroke="#0000ff" points="2246.7263,-45.832 2242.7706,-36.0034 2239.7337,-46.1536 2246.7263,-45.832"/>
<text text-anchor="middle" x="2279.4429" y="-57.8" font-family="Times,serif" font-size="14.00" fill="#000000">yes, missing</text>
</g>
<!-- 52 -->
<g id="node43" class="node">
<title>52</title>
<ellipse fill="none" stroke="#000000" cx="2427.9429" cy="-18" rx="83.3857" ry="18"/>
<text text-anchor="middle" x="2427.9429" y="-14.3" font-family="Times,serif" font-size="14.00" fill="#000000">leaf=&#45;0.0647058859</text>
</g>
<!-- 34&#45;&gt;52 -->
<g id="edge42" class="edge">
<title>34&#45;&gt;52</title>
<path fill="none" stroke="#ff0000" d="M2273.5848,-91.7866C2302.944,-77.7522 2349.7706,-55.3681 2384.1571,-38.9306"/>
<polygon fill="#ff0000" stroke="#ff0000" points="2385.9885,-41.9345 2393.5012,-34.4639 2382.9695,-35.619 2385.9885,-41.9345"/>
<text text-anchor="middle" x="2354.9429" y="-57.8" font-family="Times,serif" font-size="14.00" fill="#000000">no</text>
</g>
<!-- 23 -->
<g id="node46" class="node">
<title>23</title>
<ellipse fill="none" stroke="#000000" cx="2310.9429" cy="-192" rx="79.8859" ry="18"/>
<text text-anchor="middle" x="2310.9429" y="-188.3" font-family="Times,serif" font-size="14.00" fill="#000000">leaf=0.0777777806</text>
</g>
<!-- 13&#45;&gt;23 -->
<g id="edge45" class="edge">
<title>13&#45;&gt;23</title>
<path fill="none" stroke="#0000ff" d="M2363.9034,-261.8116C2354.4459,-249.3448 2341.4847,-232.2596 2330.7519,-218.1119"/>
<polygon fill="#0000ff" stroke="#0000ff" points="2333.2407,-215.6016 2324.4084,-209.75 2327.6639,-219.8323 2333.2407,-215.6016"/>
<text text-anchor="middle" x="2382.4429" y="-231.8" font-family="Times,serif" font-size="14.00" fill="#000000">yes, missing</text>
</g>
<!-- 24 -->
<g id="node47" class="node">
<title>24</title>
<ellipse fill="none" stroke="#000000" cx="2491.9429" cy="-192" rx="83.3857" ry="18"/>
<text text-anchor="middle" x="2491.9429" y="-188.3" font-family="Times,serif" font-size="14.00" fill="#000000">leaf=&#45;0.0647058859</text>
</g>
<!-- 13&#45;&gt;24 -->
<g id="edge46" class="edge">
<title>13&#45;&gt;24</title>
<path fill="none" stroke="#ff0000" d="M2397.7685,-263.245C2415.3255,-249.9627 2440.7118,-230.7574 2460.7039,-215.633"/>
<polygon fill="#ff0000" stroke="#ff0000" points="2463.0398,-218.2546 2468.9031,-209.4301 2458.8165,-212.6721 2463.0398,-218.2546"/>
<text text-anchor="middle" x="2448.9429" y="-231.8" font-family="Times,serif" font-size="14.00" fill="#000000">no</text>
</g>
<!-- 25 -->
<g id="node48" class="node">
<title>25</title>
<ellipse fill="none" stroke="#000000" cx="2665.9429" cy="-192" rx="58.4896" ry="18"/>
<text text-anchor="middle" x="2665.9429" y="-188.3" font-family="Times,serif" font-size="14.00" fill="#000000">Ticket&lt;103.5</text>
</g>
<!-- 14&#45;&gt;25 -->
<g id="edge47" class="edge">
<title>14&#45;&gt;25</title>
<path fill="none" stroke="#0000ff" d="M2665.9429,-260.9735C2665.9429,-249.1918 2665.9429,-233.5607 2665.9429,-220.1581"/>
<polygon fill="#0000ff" stroke="#0000ff" points="2669.443,-220.0033 2665.9429,-210.0034 2662.443,-220.0034 2669.443,-220.0033"/>
<text text-anchor="middle" x="2700.4429" y="-231.8" font-family="Times,serif" font-size="14.00" fill="#000000">yes, missing</text>
</g>
<!-- 26 -->
<g id="node49" class="node">
<title>26</title>
<ellipse fill="none" stroke="#000000" cx="2941.9429" cy="-192" rx="58.4896" ry="18"/>
<text text-anchor="middle" x="2941.9429" y="-188.3" font-family="Times,serif" font-size="14.00" fill="#000000">Ticket&lt;894.5</text>
</g>
<!-- 14&#45;&gt;26 -->
<g id="edge48" class="edge">
<title>14&#45;&gt;26</title>
<path fill="none" stroke="#ff0000" d="M2706.9649,-266.0692C2756.0193,-250.6063 2838.1314,-224.7232 2891.1493,-208.011"/>
<polygon fill="#ff0000" stroke="#ff0000" points="2892.2106,-211.3463 2900.6958,-205.0018 2890.1061,-204.6702 2892.2106,-211.3463"/>
<text text-anchor="middle" x="2827.9429" y="-231.8" font-family="Times,serif" font-size="14.00" fill="#000000">no</text>
</g>
<!-- 35 -->
<g id="node50" class="node">
<title>35</title>
<ellipse fill="none" stroke="#000000" cx="2608.9429" cy="-105" rx="53.8905" ry="18"/>
<text text-anchor="middle" x="2608.9429" y="-101.3" font-family="Times,serif" font-size="14.00" fill="#000000">Ticket&lt;20.5</text>
</g>
<!-- 25&#45;&gt;35 -->
<g id="edge49" class="edge">
<title>25&#45;&gt;35</title>
<path fill="none" stroke="#0000ff" d="M2654.1325,-173.9735C2646.0542,-161.6435 2635.2137,-145.0975 2626.1753,-131.3021"/>
<polygon fill="#0000ff" stroke="#0000ff" points="2628.9511,-129.1522 2620.5432,-122.7057 2623.0959,-132.9884 2628.9511,-129.1522"/>
<text text-anchor="middle" x="2675.4429" y="-144.8" font-family="Times,serif" font-size="14.00" fill="#000000">yes, missing</text>
</g>
<!-- 36 -->
<g id="node51" class="node">
<title>36</title>
<ellipse fill="none" stroke="#000000" cx="2760.9429" cy="-105" rx="79.8859" ry="18"/>
<text text-anchor="middle" x="2760.9429" y="-101.3" font-family="Times,serif" font-size="14.00" fill="#000000">leaf=0.0272727292</text>
</g>
<!-- 25&#45;&gt;36 -->
<g id="edge50" class="edge">
<title>25&#45;&gt;36</title>
<path fill="none" stroke="#ff0000" d="M2690.0609,-175.2477C2697.9187,-169.4434 2706.5236,-162.7047 2713.9429,-156 2722.6976,-148.0885 2731.6371,-138.7605 2739.337,-130.2598"/>
<polygon fill="#ff0000" stroke="#ff0000" points="2741.9864,-132.5474 2746.0189,-122.75 2736.7568,-127.8943 2741.9864,-132.5474"/>
<text text-anchor="middle" x="2736.9429" y="-144.8" font-family="Times,serif" font-size="14.00" fill="#000000">no</text>
</g>
<!-- 37 -->
<g id="node54" class="node">
<title>37</title>
<ellipse fill="none" stroke="#000000" cx="2941.9429" cy="-105" rx="83.3857" ry="18"/>
<text text-anchor="middle" x="2941.9429" y="-101.3" font-family="Times,serif" font-size="14.00" fill="#000000">leaf=&#45;0.0825396851</text>
</g>
<!-- 26&#45;&gt;37 -->
<g id="edge53" class="edge">
<title>26&#45;&gt;37</title>
<path fill="none" stroke="#0000ff" d="M2941.9429,-173.9735C2941.9429,-162.1918 2941.9429,-146.5607 2941.9429,-133.1581"/>
<polygon fill="#0000ff" stroke="#0000ff" points="2945.443,-133.0033 2941.9429,-123.0034 2938.443,-133.0034 2945.443,-133.0033"/>
<text text-anchor="middle" x="2976.4429" y="-144.8" font-family="Times,serif" font-size="14.00" fill="#000000">yes, missing</text>
</g>
<!-- 38 -->
<g id="node55" class="node">
<title>38</title>
<ellipse fill="none" stroke="#000000" cx="3094.9429" cy="-105" rx="51.9908" ry="18"/>
<text text-anchor="middle" x="3094.9429" y="-101.3" font-family="Times,serif" font-size="14.00" fill="#000000">Ticket&lt;907</text>
</g>
<!-- 26&#45;&gt;38 -->
<g id="edge54" class="edge">
<title>26&#45;&gt;38</title>
<path fill="none" stroke="#ff0000" d="M2974.3175,-176.9748C2987.1322,-170.7848 3001.8911,-163.3495 3014.9429,-156 3030.9881,-146.9649 3048.2763,-136.0949 3062.6617,-126.7156"/>
<polygon fill="#ff0000" stroke="#ff0000" points="3064.7732,-129.5161 3071.2065,-121.0981 3060.9278,-123.6669 3064.7732,-129.5161"/>
<text text-anchor="middle" x="3046.9429" y="-144.8" font-family="Times,serif" font-size="14.00" fill="#000000">no</text>
</g>
<!-- 53 -->
<g id="node52" class="node">
<title>53</title>
<ellipse fill="none" stroke="#000000" cx="2608.9429" cy="-18" rx="79.8859" ry="18"/>
<text text-anchor="middle" x="2608.9429" y="-14.3" font-family="Times,serif" font-size="14.00" fill="#000000">leaf=0.0250000004</text>
</g>
<!-- 35&#45;&gt;53 -->
<g id="edge51" class="edge">
<title>35&#45;&gt;53</title>
<path fill="none" stroke="#0000ff" d="M2608.9429,-86.9735C2608.9429,-75.1918 2608.9429,-59.5607 2608.9429,-46.1581"/>
<polygon fill="#0000ff" stroke="#0000ff" points="2612.443,-46.0033 2608.9429,-36.0034 2605.443,-46.0034 2612.443,-46.0033"/>
<text text-anchor="middle" x="2643.4429" y="-57.8" font-family="Times,serif" font-size="14.00" fill="#000000">yes, missing</text>
</g>
<!-- 54 -->
<g id="node53" class="node">
<title>54</title>
<ellipse fill="none" stroke="#000000" cx="2789.9429" cy="-18" rx="83.3857" ry="18"/>
<text text-anchor="middle" x="2789.9429" y="-14.3" font-family="Times,serif" font-size="14.00" fill="#000000">leaf=&#45;0.0578947365</text>
</g>
<!-- 35&#45;&gt;54 -->
<g id="edge52" class="edge">
<title>35&#45;&gt;54</title>
<path fill="none" stroke="#ff0000" d="M2640.0579,-90.0442C2669.3121,-75.9828 2713.3885,-54.7969 2746.1811,-39.0347"/>
<polygon fill="#ff0000" stroke="#ff0000" points="2748.0405,-42.0243 2755.5372,-34.5376 2745.008,-35.7153 2748.0405,-42.0243"/>
<text text-anchor="middle" x="2717.9429" y="-57.8" font-family="Times,serif" font-size="14.00" fill="#000000">no</text>
</g>
<!-- 55 -->
<g id="node56" class="node">
<title>55</title>
<ellipse fill="none" stroke="#000000" cx="3034.9429" cy="-18" rx="84.485" ry="18"/>
<text text-anchor="middle" x="3034.9429" y="-14.3" font-family="Times,serif" font-size="14.00" fill="#000000">leaf=0.00769230817</text>
</g>
<!-- 38&#45;&gt;55 -->
<g id="edge55" class="edge">
<title>38&#45;&gt;55</title>
<path fill="none" stroke="#0000ff" d="M3082.801,-87.3943C3074.2372,-74.9767 3062.6208,-58.1329 3052.9773,-44.1498"/>
<polygon fill="#0000ff" stroke="#0000ff" points="3055.8313,-42.1232 3047.2727,-35.8782 3050.0688,-46.0974 3055.8313,-42.1232"/>
<text text-anchor="middle" x="3103.4429" y="-57.8" font-family="Times,serif" font-size="14.00" fill="#000000">yes, missing</text>
</g>
<!-- 56 -->
<g id="node57" class="node">
<title>56</title>
<ellipse fill="none" stroke="#000000" cx="3220.9429" cy="-18" rx="83.3857" ry="18"/>
<text text-anchor="middle" x="3220.9429" y="-14.3" font-family="Times,serif" font-size="14.00" fill="#000000">leaf=&#45;0.0500000007</text>
</g>
<!-- 38&#45;&gt;56 -->
<g id="edge56" class="edge">
<title>38&#45;&gt;56</title>
<path fill="none" stroke="#ff0000" d="M3118.3472,-88.8399C3137.8241,-75.3916 3165.7918,-56.0805 3187.6088,-41.0164"/>
<polygon fill="#ff0000" stroke="#ff0000" points="3189.6973,-43.8277 3195.9376,-35.2656 3185.7199,-38.0674 3189.6973,-43.8277"/>
<text text-anchor="middle" x="3171.9429" y="-57.8" font-family="Times,serif" font-size="14.00" fill="#000000">no</text>
</g>
</g>
</svg>
