<?xml version="1.0" encoding="UTF-8" standalone="no"?>
<!DOCTYPE svg PUBLIC "-//W3C//DTD SVG 1.1//EN"
 "http://www.w3.org/Graphics/SVG/1.1/DTD/svg11.dtd">
<!-- Generated by graphviz version 2.40.1 (20161225.0304)
 -->
<!-- Title: %3 Pages: 1 -->
<svg width="3320pt" height="566pt"
 viewBox="0.00 0.00 3320.14 566.00" xmlns="http://www.w3.org/2000/svg" xmlns:xlink="http://www.w3.org/1999/xlink">
<g id="graph0" class="graph" transform="scale(1 1) rotate(0) translate(4 562)">
<title>%3</title>
<polygon fill="#ffffff" stroke="transparent" points="-4,4 -4,-562 3316.1355,-562 3316.1355,4 -4,4"/>
<!-- 0 -->
<g id="node1" class="node">
<title>0</title>
<ellipse fill="none" stroke="#000000" cx="1078.9429" cy="-540" rx="40.0939" ry="18"/>
<text text-anchor="middle" x="1078.9429" y="-536.3" font-family="Times,serif" font-size="14.00" fill="#000000">Sex&lt;0.5</text>
</g>
<!-- 1 -->
<g id="node2" class="node">
<title>1</title>
<ellipse fill="none" stroke="#000000" cx="831.9429" cy="-453" rx="49.2915" ry="18"/>
<text text-anchor="middle" x="831.9429" y="-449.3" font-family="Times,serif" font-size="14.00" fill="#000000">Pclass&lt;2.5</text>
</g>
<!-- 0&#45;&gt;1 -->
<g id="edge1" class="edge">
<title>0&#45;&gt;1</title>
<path fill="none" stroke="#0000ff" d="M1047.1576,-528.8044C1003.9162,-513.5736 926.3089,-486.2382 877.0553,-468.8898"/>
<polygon fill="#0000ff" stroke="#0000ff" points="878.196,-465.5809 867.6012,-465.5598 875.8704,-472.1833 878.196,-465.5809"/>
<text text-anchor="middle" x="1005.4429" y="-492.8" font-family="Times,serif" font-size="14.00" fill="#000000">yes, missing</text>
</g>
<!-- 2 -->
<g id="node3" class="node">
<title>2</title>
<ellipse fill="none" stroke="#000000" cx="1633.9429" cy="-453" rx="41.6928" ry="18"/>
<text text-anchor="middle" x="1633.9429" y="-449.3" font-family="Times,serif" font-size="14.00" fill="#000000">Cabin&lt;6</text>
</g>
<!-- 0&#45;&gt;2 -->
<g id="edge2" class="edge">
<title>0&#45;&gt;2</title>
<path fill="none" stroke="#ff0000" d="M1117.0903,-534.0201C1215.0744,-518.6605 1475.5322,-477.832 1584.7062,-460.7182"/>
<polygon fill="#ff0000" stroke="#ff0000" points="1585.4513,-464.1442 1594.7886,-459.1377 1584.3672,-457.2287 1585.4513,-464.1442"/>
<text text-anchor="middle" x="1396.9429" y="-492.8" font-family="Times,serif" font-size="14.00" fill="#000000">no</text>
</g>
<!-- 3 -->
<g id="node4" class="node">
<title>3</title>
<ellipse fill="none" stroke="#000000" cx="578.9429" cy="-366" rx="42.4939" ry="18"/>
<text text-anchor="middle" x="578.9429" y="-362.3" font-family="Times,serif" font-size="14.00" fill="#000000">Age&lt;4.5</text>
</g>
<!-- 1&#45;&gt;3 -->
<g id="edge3" class="edge">
<title>1&#45;&gt;3</title>
<path fill="none" stroke="#0000ff" d="M795.9629,-440.6274C750.0159,-424.8275 670.6108,-397.5222 621.6472,-380.6849"/>
<polygon fill="#0000ff" stroke="#0000ff" points="622.5764,-377.3033 611.9817,-377.3612 620.3001,-383.9229 622.5764,-377.3033"/>
<text text-anchor="middle" x="755.4429" y="-405.8" font-family="Times,serif" font-size="14.00" fill="#000000">yes, missing</text>
</g>
<!-- 4 -->
<g id="node5" class="node">
<title>4</title>
<ellipse fill="none" stroke="#000000" cx="831.9429" cy="-366" rx="85.2851" ry="18"/>
<text text-anchor="middle" x="831.9429" y="-362.3" font-family="Times,serif" font-size="14.00" fill="#000000">FamilyCategory&lt;3.5</text>
</g>
<!-- 1&#45;&gt;4 -->
<g id="edge4" class="edge">
<title>1&#45;&gt;4</title>
<path fill="none" stroke="#ff0000" d="M831.9429,-434.9735C831.9429,-423.1918 831.9429,-407.5607 831.9429,-394.1581"/>
<polygon fill="#ff0000" stroke="#ff0000" points="835.443,-394.0033 831.9429,-384.0034 828.443,-394.0034 835.443,-394.0033"/>
<text text-anchor="middle" x="838.9429" y="-405.8" font-family="Times,serif" font-size="14.00" fill="#000000">no</text>
</g>
<!-- 5 -->
<g id="node22" class="node">
<title>5</title>
<ellipse fill="none" stroke="#000000" cx="1633.9429" cy="-366" rx="50.8918" ry="18"/>
<text text-anchor="middle" x="1633.9429" y="-362.3" font-family="Times,serif" font-size="14.00" fill="#000000">Age&lt;36.25</text>
</g>
<!-- 2&#45;&gt;5 -->
<g id="edge21" class="edge">
<title>2&#45;&gt;5</title>
<path fill="none" stroke="#0000ff" d="M1633.9429,-434.9735C1633.9429,-423.1918 1633.9429,-407.5607 1633.9429,-394.1581"/>
<polygon fill="#0000ff" stroke="#0000ff" points="1637.443,-394.0033 1633.9429,-384.0034 1630.443,-394.0034 1637.443,-394.0033"/>
<text text-anchor="middle" x="1668.4429" y="-405.8" font-family="Times,serif" font-size="14.00" fill="#000000">yes, missing</text>
</g>
<!-- 6 -->
<g id="node23" class="node">
<title>6</title>
<ellipse fill="none" stroke="#000000" cx="2405.9429" cy="-366" rx="39.7935" ry="18"/>
<text text-anchor="middle" x="2405.9429" y="-362.3" font-family="Times,serif" font-size="14.00" fill="#000000">Age&lt;13</text>
</g>
<!-- 2&#45;&gt;6 -->
<g id="edge22" class="edge">
<title>2&#45;&gt;6</title>
<path fill="none" stroke="#ff0000" d="M1674.362,-448.445C1804.9639,-433.7269 2215.3601,-387.4776 2357.17,-371.4964"/>
<polygon fill="#ff0000" stroke="#ff0000" points="2357.758,-374.9524 2367.3032,-370.3545 2356.9741,-367.9964 2357.758,-374.9524"/>
<text text-anchor="middle" x="2073.9429" y="-405.8" font-family="Times,serif" font-size="14.00" fill="#000000">no</text>
</g>
<!-- 7 -->
<g id="node6" class="node">
<title>7</title>
<ellipse fill="none" stroke="#000000" cx="405.9429" cy="-279" rx="79.8859" ry="18"/>
<text text-anchor="middle" x="405.9429" y="-275.3" font-family="Times,serif" font-size="14.00" fill="#000000">leaf=0.0250000004</text>
</g>
<!-- 3&#45;&gt;7 -->
<g id="edge5" class="edge">
<title>3&#45;&gt;7</title>
<path fill="none" stroke="#0000ff" d="M551.1678,-352.4118C537.5221,-345.7082 520.8478,-337.4755 505.9429,-330 486.6581,-320.3278 465.3522,-309.4838 447.3794,-300.2901"/>
<polygon fill="#0000ff" stroke="#0000ff" points="448.8092,-297.0901 438.3129,-295.6478 445.6188,-303.3209 448.8092,-297.0901"/>
<text text-anchor="middle" x="540.4429" y="-318.8" font-family="Times,serif" font-size="14.00" fill="#000000">yes, missing</text>
</g>
<!-- 8 -->
<g id="node7" class="node">
<title>8</title>
<ellipse fill="none" stroke="#000000" cx="578.9429" cy="-279" rx="75.2868" ry="18"/>
<text text-anchor="middle" x="578.9429" y="-275.3" font-family="Times,serif" font-size="14.00" fill="#000000">leaf=0.087730065</text>
</g>
<!-- 3&#45;&gt;8 -->
<g id="edge6" class="edge">
<title>3&#45;&gt;8</title>
<path fill="none" stroke="#ff0000" d="M578.9429,-347.9735C578.9429,-336.1918 578.9429,-320.5607 578.9429,-307.1581"/>
<polygon fill="#ff0000" stroke="#ff0000" points="582.443,-307.0033 578.9429,-297.0034 575.443,-307.0034 582.443,-307.0033"/>
<text text-anchor="middle" x="585.9429" y="-318.8" font-family="Times,serif" font-size="14.00" fill="#000000">no</text>
</g>
<!-- 9 -->
<g id="node8" class="node">
<title>9</title>
<ellipse fill="none" stroke="#000000" cx="744.9429" cy="-279" rx="72.5877" ry="18"/>
<text text-anchor="middle" x="744.9429" y="-275.3" font-family="Times,serif" font-size="14.00" fill="#000000">Age&lt;19.2337265</text>
</g>
<!-- 4&#45;&gt;9 -->
<g id="edge7" class="edge">
<title>4&#45;&gt;9</title>
<path fill="none" stroke="#0000ff" d="M813.9165,-347.9735C801.2341,-335.2912 784.0915,-318.1486 770.0695,-304.1265"/>
<polygon fill="#0000ff" stroke="#0000ff" points="772.1946,-301.3019 762.6486,-296.7057 767.2448,-306.2517 772.1946,-301.3019"/>
<text text-anchor="middle" x="828.4429" y="-318.8" font-family="Times,serif" font-size="14.00" fill="#000000">yes, missing</text>
</g>
<!-- 10 -->
<g id="node9" class="node">
<title>10</title>
<ellipse fill="none" stroke="#000000" cx="918.9429" cy="-279" rx="83.3857" ry="18"/>
<text text-anchor="middle" x="918.9429" y="-275.3" font-family="Times,serif" font-size="14.00" fill="#000000">leaf=&#45;0.0733333379</text>
</g>
<!-- 4&#45;&gt;10 -->
<g id="edge8" class="edge">
<title>4&#45;&gt;10</title>
<path fill="none" stroke="#ff0000" d="M849.9694,-347.9735C862.6517,-335.2912 879.7943,-318.1486 893.8164,-304.1265"/>
<polygon fill="#ff0000" stroke="#ff0000" points="896.641,-306.2517 901.2372,-296.7057 891.6912,-301.3019 896.641,-306.2517"/>
<text text-anchor="middle" x="887.9429" y="-318.8" font-family="Times,serif" font-size="14.00" fill="#000000">no</text>
</g>
<!-- 15 -->
<g id="node10" class="node">
<title>15</title>
<ellipse fill="none" stroke="#000000" cx="465.9429" cy="-192" rx="63.8893" ry="18"/>
<text text-anchor="middle" x="465.9429" y="-188.3" font-family="Times,serif" font-size="14.00" fill="#000000">Embarked&lt;1.5</text>
</g>
<!-- 9&#45;&gt;15 -->
<g id="edge9" class="edge">
<title>9&#45;&gt;15</title>
<path fill="none" stroke="#0000ff" d="M699.4958,-264.8283C650.03,-249.4035 571.0315,-224.7695 518.8222,-208.4892"/>
<polygon fill="#0000ff" stroke="#0000ff" points="519.6652,-205.0859 509.0766,-205.4503 517.5813,-211.7686 519.6652,-205.0859"/>
<text text-anchor="middle" x="657.4429" y="-231.8" font-family="Times,serif" font-size="14.00" fill="#000000">yes, missing</text>
</g>
<!-- 16 -->
<g id="node11" class="node">
<title>16</title>
<ellipse fill="none" stroke="#000000" cx="744.9429" cy="-192" rx="58.4896" ry="18"/>
<text text-anchor="middle" x="744.9429" y="-188.3" font-family="Times,serif" font-size="14.00" fill="#000000">Ticket&lt;267.5</text>
</g>
<!-- 9&#45;&gt;16 -->
<g id="edge10" class="edge">
<title>9&#45;&gt;16</title>
<path fill="none" stroke="#ff0000" d="M744.9429,-260.9735C744.9429,-249.1918 744.9429,-233.5607 744.9429,-220.1581"/>
<polygon fill="#ff0000" stroke="#ff0000" points="748.443,-220.0033 744.9429,-210.0034 741.443,-220.0034 748.443,-220.0033"/>
<text text-anchor="middle" x="751.9429" y="-231.8" font-family="Times,serif" font-size="14.00" fill="#000000">no</text>
</g>
<!-- 25 -->
<g id="node12" class="node">
<title>25</title>
<ellipse fill="none" stroke="#000000" cx="257.9429" cy="-105" rx="63.8893" ry="18"/>
<text text-anchor="middle" x="257.9429" y="-101.3" font-family="Times,serif" font-size="14.00" fill="#000000">Embarked&lt;0.5</text>
</g>
<!-- 15&#45;&gt;25 -->
<g id="edge11" class="edge">
<title>15&#45;&gt;25</title>
<path fill="none" stroke="#0000ff" d="M430.1864,-177.0442C395.0647,-162.3538 341.352,-139.8874 303.2568,-123.9534"/>
<polygon fill="#0000ff" stroke="#0000ff" points="304.505,-120.6817 293.9289,-120.0518 301.8038,-127.1396 304.505,-120.6817"/>
<text text-anchor="middle" x="409.4429" y="-144.8" font-family="Times,serif" font-size="14.00" fill="#000000">yes, missing</text>
</g>
<!-- 26 -->
<g id="node13" class="node">
<title>26</title>
<ellipse fill="none" stroke="#000000" cx="465.9429" cy="-105" rx="72.5877" ry="18"/>
<text text-anchor="middle" x="465.9429" y="-101.3" font-family="Times,serif" font-size="14.00" fill="#000000">Age&lt;5.96372509</text>
</g>
<!-- 15&#45;&gt;26 -->
<g id="edge12" class="edge">
<title>15&#45;&gt;26</title>
<path fill="none" stroke="#ff0000" d="M465.9429,-173.9735C465.9429,-162.1918 465.9429,-146.5607 465.9429,-133.1581"/>
<polygon fill="#ff0000" stroke="#ff0000" points="469.443,-133.0033 465.9429,-123.0034 462.443,-133.0034 469.443,-133.0033"/>
<text text-anchor="middle" x="472.9429" y="-144.8" font-family="Times,serif" font-size="14.00" fill="#000000">no</text>
</g>
<!-- 27 -->
<g id="node18" class="node">
<title>27</title>
<ellipse fill="none" stroke="#000000" cx="667.9429" cy="-105" rx="79.8859" ry="18"/>
<text text-anchor="middle" x="667.9429" y="-101.3" font-family="Times,serif" font-size="14.00" fill="#000000">leaf=0.0555555597</text>
</g>
<!-- 16&#45;&gt;27 -->
<g id="edge17" class="edge">
<title>16&#45;&gt;27</title>
<path fill="none" stroke="#0000ff" d="M721.8136,-175.3047C714.703,-169.6061 707.1278,-162.9155 700.9429,-156 694.3343,-148.6108 688.1297,-139.7719 682.9233,-131.5441"/>
<polygon fill="#0000ff" stroke="#0000ff" points="685.8832,-129.6754 677.6937,-122.9536 679.904,-133.3153 685.8832,-129.6754"/>
<text text-anchor="middle" x="735.4429" y="-144.8" font-family="Times,serif" font-size="14.00" fill="#000000">yes, missing</text>
</g>
<!-- 28 -->
<g id="node19" class="node">
<title>28</title>
<ellipse fill="none" stroke="#000000" cx="823.9429" cy="-105" rx="58.4896" ry="18"/>
<text text-anchor="middle" x="823.9429" y="-101.3" font-family="Times,serif" font-size="14.00" fill="#000000">Ticket&lt;457.5</text>
</g>
<!-- 16&#45;&gt;28 -->
<g id="edge18" class="edge">
<title>16&#45;&gt;28</title>
<path fill="none" stroke="#ff0000" d="M760.9297,-174.3943C772.4943,-161.6586 788.2866,-144.2671 801.1682,-130.081"/>
<polygon fill="#ff0000" stroke="#ff0000" points="803.8485,-132.3357 807.9799,-122.5796 798.6662,-127.63 803.8485,-132.3357"/>
<text text-anchor="middle" x="796.9429" y="-144.8" font-family="Times,serif" font-size="14.00" fill="#000000">no</text>
</g>
<!-- 39 -->
<g id="node14" class="node">
<title>39</title>
<ellipse fill="none" stroke="#000000" cx="79.9429" cy="-18" rx="79.8859" ry="18"/>
<text text-anchor="middle" x="79.9429" y="-14.3" font-family="Times,serif" font-size="14.00" fill="#000000">leaf=0.0263157915</text>
</g>
<!-- 25&#45;&gt;39 -->
<g id="edge13" class="edge">
<title>25&#45;&gt;39</title>
<path fill="none" stroke="#0000ff" d="M225.7084,-89.245C196.8031,-75.1171 154.1873,-54.288 122.4919,-38.7964"/>
<polygon fill="#0000ff" stroke="#0000ff" points="123.9699,-35.6232 113.4487,-34.3764 120.896,-41.9122 123.9699,-35.6232"/>
<text text-anchor="middle" x="214.4429" y="-57.8" font-family="Times,serif" font-size="14.00" fill="#000000">yes, missing</text>
</g>
<!-- 40 -->
<g id="node15" class="node">
<title>40</title>
<ellipse fill="none" stroke="#000000" cx="257.9429" cy="-18" rx="79.8859" ry="18"/>
<text text-anchor="middle" x="257.9429" y="-14.3" font-family="Times,serif" font-size="14.00" fill="#000000">leaf=0.0703703687</text>
</g>
<!-- 25&#45;&gt;40 -->
<g id="edge14" class="edge">
<title>25&#45;&gt;40</title>
<path fill="none" stroke="#ff0000" d="M257.9429,-86.9735C257.9429,-75.1918 257.9429,-59.5607 257.9429,-46.1581"/>
<polygon fill="#ff0000" stroke="#ff0000" points="261.443,-46.0033 257.9429,-36.0034 254.443,-46.0034 261.443,-46.0033"/>
<text text-anchor="middle" x="264.9429" y="-57.8" font-family="Times,serif" font-size="14.00" fill="#000000">no</text>
</g>
<!-- 41 -->
<g id="node16" class="node">
<title>41</title>
<ellipse fill="none" stroke="#000000" cx="435.9429" cy="-18" rx="79.8859" ry="18"/>
<text text-anchor="middle" x="435.9429" y="-14.3" font-family="Times,serif" font-size="14.00" fill="#000000">leaf=0.0400000028</text>
</g>
<!-- 26&#45;&gt;41 -->
<g id="edge15" class="edge">
<title>26&#45;&gt;41</title>
<path fill="none" stroke="#0000ff" d="M459.7269,-86.9735C455.624,-75.0751 450.1673,-59.2508 445.5155,-45.7606"/>
<polygon fill="#0000ff" stroke="#0000ff" points="448.7197,-44.3161 442.151,-36.0034 442.1021,-46.5981 448.7197,-44.3161"/>
<text text-anchor="middle" x="487.4429" y="-57.8" font-family="Times,serif" font-size="14.00" fill="#000000">yes, missing</text>
</g>
<!-- 42 -->
<g id="node17" class="node">
<title>42</title>
<ellipse fill="none" stroke="#000000" cx="620.9429" cy="-18" rx="87.1846" ry="18"/>
<text text-anchor="middle" x="620.9429" y="-14.3" font-family="Times,serif" font-size="14.00" fill="#000000">leaf=&#45;0.00769230817</text>
</g>
<!-- 26&#45;&gt;42 -->
<g id="edge16" class="edge">
<title>26&#45;&gt;42</title>
<path fill="none" stroke="#ff0000" d="M495.4621,-88.4312C520.0046,-74.6557 555.1308,-54.9397 581.9798,-39.8696"/>
<polygon fill="#ff0000" stroke="#ff0000" points="583.7334,-42.8991 590.7405,-34.9523 580.3071,-36.7949 583.7334,-42.8991"/>
<text text-anchor="middle" x="559.9429" y="-57.8" font-family="Times,serif" font-size="14.00" fill="#000000">no</text>
</g>
<!-- 43 -->
<g id="node20" class="node">
<title>43</title>
<ellipse fill="none" stroke="#000000" cx="808.9429" cy="-18" rx="83.3857" ry="18"/>
<text text-anchor="middle" x="808.9429" y="-14.3" font-family="Times,serif" font-size="14.00" fill="#000000">leaf=&#45;0.0523809567</text>
</g>
<!-- 28&#45;&gt;43 -->
<g id="edge19" class="edge">
<title>28&#45;&gt;43</title>
<path fill="none" stroke="#0000ff" d="M820.8349,-86.9735C818.8036,-75.1918 816.1085,-59.5607 813.7977,-46.1581"/>
<polygon fill="#0000ff" stroke="#0000ff" points="817.1952,-45.2633 812.0469,-36.0034 810.297,-46.4527 817.1952,-45.2633"/>
<text text-anchor="middle" x="852.4429" y="-57.8" font-family="Times,serif" font-size="14.00" fill="#000000">yes, missing</text>
</g>
<!-- 44 -->
<g id="node21" class="node">
<title>44</title>
<ellipse fill="none" stroke="#000000" cx="994.9429" cy="-18" rx="84.485" ry="18"/>
<text text-anchor="middle" x="994.9429" y="-14.3" font-family="Times,serif" font-size="14.00" fill="#000000">leaf=0.00476190494</text>
</g>
<!-- 28&#45;&gt;44 -->
<g id="edge20" class="edge">
<title>28&#45;&gt;44</title>
<path fill="none" stroke="#ff0000" d="M854.5143,-89.4461C882.0251,-75.4494 922.6934,-54.7585 953.1939,-39.2407"/>
<polygon fill="#ff0000" stroke="#ff0000" points="954.9816,-42.2582 962.3073,-34.6041 951.8074,-36.0192 954.9816,-42.2582"/>
<text text-anchor="middle" x="926.9429" y="-57.8" font-family="Times,serif" font-size="14.00" fill="#000000">no</text>
</g>
<!-- 11 -->
<g id="node24" class="node">
<title>11</title>
<ellipse fill="none" stroke="#000000" cx="1421.9429" cy="-279" rx="53.8905" ry="18"/>
<text text-anchor="middle" x="1421.9429" y="-275.3" font-family="Times,serif" font-size="14.00" fill="#000000">Ticket&lt;47.5</text>
</g>
<!-- 5&#45;&gt;11 -->
<g id="edge23" class="edge">
<title>5&#45;&gt;11</title>
<path fill="none" stroke="#0000ff" d="M1600.3509,-352.2146C1563.8939,-337.2535 1505.5475,-313.3094 1465.571,-296.904"/>
<polygon fill="#0000ff" stroke="#0000ff" points="1466.6599,-293.5676 1456.0798,-293.009 1464.0023,-300.0435 1466.6599,-293.5676"/>
<text text-anchor="middle" x="1575.4429" y="-318.8" font-family="Times,serif" font-size="14.00" fill="#000000">yes, missing</text>
</g>
<!-- 12 -->
<g id="node25" class="node">
<title>12</title>
<ellipse fill="none" stroke="#000000" cx="1729.9429" cy="-279" rx="48.1917" ry="18"/>
<text text-anchor="middle" x="1729.9429" y="-275.3" font-family="Times,serif" font-size="14.00" fill="#000000">Cabin&lt;0.5</text>
</g>
<!-- 5&#45;&gt;12 -->
<g id="edge24" class="edge">
<title>5&#45;&gt;12</title>
<path fill="none" stroke="#ff0000" d="M1652.4527,-349.2255C1667.0615,-335.9862 1687.6207,-317.3545 1703.8917,-302.6089"/>
<polygon fill="#ff0000" stroke="#ff0000" points="1706.4304,-305.0317 1711.49,-295.723 1701.7297,-299.8447 1706.4304,-305.0317"/>
<text text-anchor="middle" x="1694.9429" y="-318.8" font-family="Times,serif" font-size="14.00" fill="#000000">no</text>
</g>
<!-- 13 -->
<g id="node44" class="node">
<title>13</title>
<ellipse fill="none" stroke="#000000" cx="2405.9429" cy="-279" rx="41.6928" ry="18"/>
<text text-anchor="middle" x="2405.9429" y="-275.3" font-family="Times,serif" font-size="14.00" fill="#000000">SibSp&lt;2</text>
</g>
<!-- 6&#45;&gt;13 -->
<g id="edge43" class="edge">
<title>6&#45;&gt;13</title>
<path fill="none" stroke="#0000ff" d="M2405.9429,-347.9735C2405.9429,-336.1918 2405.9429,-320.5607 2405.9429,-307.1581"/>
<polygon fill="#0000ff" stroke="#0000ff" points="2409.443,-307.0033 2405.9429,-297.0034 2402.443,-307.0034 2409.443,-307.0033"/>
<text text-anchor="middle" x="2440.4429" y="-318.8" font-family="Times,serif" font-size="14.00" fill="#000000">yes, missing</text>
</g>
<!-- 14 -->
<g id="node45" class="node">
<title>14</title>
<ellipse fill="none" stroke="#000000" cx="2705.9429" cy="-279" rx="58.4896" ry="18"/>
<text text-anchor="middle" x="2705.9429" y="-275.3" font-family="Times,serif" font-size="14.00" fill="#000000">Ticket&lt;114.5</text>
</g>
<!-- 6&#45;&gt;14 -->
<g id="edge44" class="edge">
<title>6&#45;&gt;14</title>
<path fill="none" stroke="#ff0000" d="M2439.4835,-356.2732C2491.4069,-341.2154 2591.6748,-312.1377 2653.3136,-294.2625"/>
<polygon fill="#ff0000" stroke="#ff0000" points="2654.6043,-297.5325 2663.2338,-291.3857 2652.6546,-290.8095 2654.6043,-297.5325"/>
<text text-anchor="middle" x="2580.9429" y="-318.8" font-family="Times,serif" font-size="14.00" fill="#000000">no</text>
</g>
<!-- 17 -->
<g id="node26" class="node">
<title>17</title>
<ellipse fill="none" stroke="#000000" cx="1187.9429" cy="-192" rx="46.2923" ry="18"/>
<text text-anchor="middle" x="1187.9429" y="-188.3" font-family="Times,serif" font-size="14.00" fill="#000000">Age&lt;28.5</text>
</g>
<!-- 11&#45;&gt;17 -->
<g id="edge25" class="edge">
<title>11&#45;&gt;17</title>
<path fill="none" stroke="#0000ff" d="M1385.8932,-265.5969C1344.0902,-250.0548 1275.2451,-224.4585 1230.7573,-207.9182"/>
<polygon fill="#0000ff" stroke="#0000ff" points="1231.9709,-204.6354 1221.3781,-204.431 1229.5315,-211.1966 1231.9709,-204.6354"/>
<text text-anchor="middle" x="1354.4429" y="-231.8" font-family="Times,serif" font-size="14.00" fill="#000000">yes, missing</text>
</g>
<!-- 18 -->
<g id="node27" class="node">
<title>18</title>
<ellipse fill="none" stroke="#000000" cx="1421.9429" cy="-192" rx="58.4896" ry="18"/>
<text text-anchor="middle" x="1421.9429" y="-188.3" font-family="Times,serif" font-size="14.00" fill="#000000">Ticket&lt;342.5</text>
</g>
<!-- 11&#45;&gt;18 -->
<g id="edge26" class="edge">
<title>11&#45;&gt;18</title>
<path fill="none" stroke="#ff0000" d="M1421.9429,-260.9735C1421.9429,-249.1918 1421.9429,-233.5607 1421.9429,-220.1581"/>
<polygon fill="#ff0000" stroke="#ff0000" points="1425.443,-220.0033 1421.9429,-210.0034 1418.443,-220.0034 1425.443,-220.0033"/>
<text text-anchor="middle" x="1428.9429" y="-231.8" font-family="Times,serif" font-size="14.00" fill="#000000">no</text>
</g>
<!-- 19 -->
<g id="node36" class="node">
<title>19</title>
<ellipse fill="none" stroke="#000000" cx="1729.9429" cy="-192" rx="36.2938" ry="18"/>
<text text-anchor="middle" x="1729.9429" y="-188.3" font-family="Times,serif" font-size="14.00" fill="#000000">leaf=&#45;0</text>
</g>
<!-- 12&#45;&gt;19 -->
<g id="edge35" class="edge">
<title>12&#45;&gt;19</title>
<path fill="none" stroke="#0000ff" d="M1729.9429,-260.9735C1729.9429,-249.1918 1729.9429,-233.5607 1729.9429,-220.1581"/>
<polygon fill="#0000ff" stroke="#0000ff" points="1733.443,-220.0033 1729.9429,-210.0034 1726.443,-220.0034 1733.443,-220.0033"/>
<text text-anchor="middle" x="1764.4429" y="-231.8" font-family="Times,serif" font-size="14.00" fill="#000000">yes, missing</text>
</g>
<!-- 20 -->
<g id="node37" class="node">
<title>20</title>
<ellipse fill="none" stroke="#000000" cx="2061.9429" cy="-192" rx="48.1917" ry="18"/>
<text text-anchor="middle" x="2061.9429" y="-188.3" font-family="Times,serif" font-size="14.00" fill="#000000">SibSp&lt;0.5</text>
</g>
<!-- 12&#45;&gt;20 -->
<g id="edge36" class="edge">
<title>12&#45;&gt;20</title>
<path fill="none" stroke="#ff0000" d="M1769.6601,-268.5922C1830.4791,-252.6547 1946.568,-222.2338 2012.6678,-204.9125"/>
<polygon fill="#ff0000" stroke="#ff0000" points="2013.6519,-208.2728 2022.438,-202.3522 2011.8774,-201.5015 2013.6519,-208.2728"/>
<text text-anchor="middle" x="1922.9429" y="-231.8" font-family="Times,serif" font-size="14.00" fill="#000000">no</text>
</g>
<!-- 29 -->
<g id="node28" class="node">
<title>29</title>
<ellipse fill="none" stroke="#000000" cx="1006.9429" cy="-105" rx="79.8859" ry="18"/>
<text text-anchor="middle" x="1006.9429" y="-101.3" font-family="Times,serif" font-size="14.00" fill="#000000">leaf=0.0111111114</text>
</g>
<!-- 17&#45;&gt;29 -->
<g id="edge27" class="edge">
<title>17&#45;&gt;29</title>
<path fill="none" stroke="#0000ff" d="M1158.8621,-178.0219C1129.4497,-163.8845 1083.6496,-141.87 1050.0227,-125.7069"/>
<polygon fill="#0000ff" stroke="#0000ff" points="1051.4139,-122.4923 1040.8847,-121.3146 1048.3813,-128.8013 1051.4139,-122.4923"/>
<text text-anchor="middle" x="1143.4429" y="-144.8" font-family="Times,serif" font-size="14.00" fill="#000000">yes, missing</text>
</g>
<!-- 30 -->
<g id="node29" class="node">
<title>30</title>
<ellipse fill="none" stroke="#000000" cx="1187.9429" cy="-105" rx="83.3857" ry="18"/>
<text text-anchor="middle" x="1187.9429" y="-101.3" font-family="Times,serif" font-size="14.00" fill="#000000">leaf=&#45;0.0400000028</text>
</g>
<!-- 17&#45;&gt;30 -->
<g id="edge28" class="edge">
<title>17&#45;&gt;30</title>
<path fill="none" stroke="#ff0000" d="M1187.9429,-173.9735C1187.9429,-162.1918 1187.9429,-146.5607 1187.9429,-133.1581"/>
<polygon fill="#ff0000" stroke="#ff0000" points="1191.443,-133.0033 1187.9429,-123.0034 1184.443,-133.0034 1191.443,-133.0033"/>
<text text-anchor="middle" x="1194.9429" y="-144.8" font-family="Times,serif" font-size="14.00" fill="#000000">no</text>
</g>
<!-- 31 -->
<g id="node30" class="node">
<title>31</title>
<ellipse fill="none" stroke="#000000" cx="1356.9429" cy="-105" rx="68.4888" ry="18"/>
<text text-anchor="middle" x="1356.9429" y="-101.3" font-family="Times,serif" font-size="14.00" fill="#000000">Age&lt;34.069973</text>
</g>
<!-- 18&#45;&gt;31 -->
<g id="edge29" class="edge">
<title>18&#45;&gt;31</title>
<path fill="none" stroke="#0000ff" d="M1408.7892,-174.3943C1399.5117,-161.9767 1386.9273,-145.1329 1376.4801,-131.1498"/>
<polygon fill="#0000ff" stroke="#0000ff" points="1379.0893,-128.7944 1370.3002,-122.8782 1373.4816,-132.9841 1379.0893,-128.7944"/>
<text text-anchor="middle" x="1428.4429" y="-144.8" font-family="Times,serif" font-size="14.00" fill="#000000">yes, missing</text>
</g>
<!-- 32 -->
<g id="node31" class="node">
<title>32</title>
<ellipse fill="none" stroke="#000000" cx="1526.9429" cy="-105" rx="39.7935" ry="18"/>
<text text-anchor="middle" x="1526.9429" y="-101.3" font-family="Times,serif" font-size="14.00" fill="#000000">Age&lt;34</text>
</g>
<!-- 18&#45;&gt;32 -->
<g id="edge30" class="edge">
<title>18&#45;&gt;32</title>
<path fill="none" stroke="#ff0000" d="M1443.564,-174.9165C1451.0112,-168.9759 1459.3786,-162.2382 1466.9429,-156 1478.1213,-146.7812 1490.3278,-136.4544 1500.7952,-127.517"/>
<polygon fill="#ff0000" stroke="#ff0000" points="1503.0938,-130.1565 1508.4148,-120.9947 1498.5418,-124.8387 1503.0938,-130.1565"/>
<text text-anchor="middle" x="1490.9429" y="-144.8" font-family="Times,serif" font-size="14.00" fill="#000000">no</text>
</g>
<!-- 45 -->
<g id="node32" class="node">
<title>45</title>
<ellipse fill="none" stroke="#000000" cx="1172.9429" cy="-18" rx="75.2868" ry="18"/>
<text text-anchor="middle" x="1172.9429" y="-14.3" font-family="Times,serif" font-size="14.00" fill="#000000">leaf=0.075000003</text>
</g>
<!-- 31&#45;&gt;45 -->
<g id="edge31" class="edge">
<title>31&#45;&gt;45</title>
<path fill="none" stroke="#0000ff" d="M1322.2485,-89.4121C1308.4276,-83.1445 1292.3986,-75.8031 1277.9429,-69 1257.1424,-59.2109 1234.159,-48.0833 1215.0116,-38.7255"/>
<polygon fill="#0000ff" stroke="#0000ff" points="1216.4668,-35.541 1205.9464,-34.2875 1213.3889,-41.8281 1216.4668,-35.541"/>
<text text-anchor="middle" x="1312.4429" y="-57.8" font-family="Times,serif" font-size="14.00" fill="#000000">yes, missing</text>
</g>
<!-- 46 -->
<g id="node33" class="node">
<title>46</title>
<ellipse fill="none" stroke="#000000" cx="1345.9429" cy="-18" rx="79.8859" ry="18"/>
<text text-anchor="middle" x="1345.9429" y="-14.3" font-family="Times,serif" font-size="14.00" fill="#000000">leaf=0.0200000014</text>
</g>
<!-- 31&#45;&gt;46 -->
<g id="edge32" class="edge">
<title>31&#45;&gt;46</title>
<path fill="none" stroke="#ff0000" d="M1354.6637,-86.9735C1353.1741,-75.1918 1351.1977,-59.5607 1349.5031,-46.1581"/>
<polygon fill="#ff0000" stroke="#ff0000" points="1352.946,-45.4853 1348.2192,-36.0034 1346.0013,-46.3634 1352.946,-45.4853"/>
<text text-anchor="middle" x="1359.9429" y="-57.8" font-family="Times,serif" font-size="14.00" fill="#000000">no</text>
</g>
<!-- 47 -->
<g id="node34" class="node">
<title>47</title>
<ellipse fill="none" stroke="#000000" cx="1526.9429" cy="-18" rx="83.3857" ry="18"/>
<text text-anchor="middle" x="1526.9429" y="-14.3" font-family="Times,serif" font-size="14.00" fill="#000000">leaf=&#45;0.0294117667</text>
</g>
<!-- 32&#45;&gt;47 -->
<g id="edge33" class="edge">
<title>32&#45;&gt;47</title>
<path fill="none" stroke="#0000ff" d="M1526.9429,-86.9735C1526.9429,-75.1918 1526.9429,-59.5607 1526.9429,-46.1581"/>
<polygon fill="#0000ff" stroke="#0000ff" points="1530.443,-46.0033 1526.9429,-36.0034 1523.443,-46.0034 1530.443,-46.0033"/>
<text text-anchor="middle" x="1561.4429" y="-57.8" font-family="Times,serif" font-size="14.00" fill="#000000">yes, missing</text>
</g>
<!-- 48 -->
<g id="node35" class="node">
<title>48</title>
<ellipse fill="none" stroke="#000000" cx="1707.9429" cy="-18" rx="79.8859" ry="18"/>
<text text-anchor="middle" x="1707.9429" y="-14.3" font-family="Times,serif" font-size="14.00" fill="#000000">leaf=0.0400000028</text>
</g>
<!-- 32&#45;&gt;48 -->
<g id="edge34" class="edge">
<title>32&#45;&gt;48</title>
<path fill="none" stroke="#ff0000" d="M1554.4329,-91.7866C1583.7213,-77.7088 1630.4887,-55.2294 1664.715,-38.7781"/>
<polygon fill="#ff0000" stroke="#ff0000" points="1666.5144,-41.7965 1674.011,-34.3098 1663.4819,-35.4875 1666.5144,-41.7965"/>
<text text-anchor="middle" x="1635.9429" y="-57.8" font-family="Times,serif" font-size="14.00" fill="#000000">no</text>
</g>
<!-- 33 -->
<g id="node38" class="node">
<title>33</title>
<ellipse fill="none" stroke="#000000" cx="2061.9429" cy="-105" rx="48.1917" ry="18"/>
<text text-anchor="middle" x="2061.9429" y="-101.3" font-family="Times,serif" font-size="14.00" fill="#000000">Cabin&lt;3.5</text>
</g>
<!-- 20&#45;&gt;33 -->
<g id="edge37" class="edge">
<title>20&#45;&gt;33</title>
<path fill="none" stroke="#0000ff" d="M2061.9429,-173.9735C2061.9429,-162.1918 2061.9429,-146.5607 2061.9429,-133.1581"/>
<polygon fill="#0000ff" stroke="#0000ff" points="2065.443,-133.0033 2061.9429,-123.0034 2058.443,-133.0034 2065.443,-133.0033"/>
<text text-anchor="middle" x="2096.4429" y="-144.8" font-family="Times,serif" font-size="14.00" fill="#000000">yes, missing</text>
</g>
<!-- 34 -->
<g id="node39" class="node">
<title>34</title>
<ellipse fill="none" stroke="#000000" cx="2253.9429" cy="-105" rx="39.7935" ry="18"/>
<text text-anchor="middle" x="2253.9429" y="-101.3" font-family="Times,serif" font-size="14.00" fill="#000000">Age&lt;43</text>
</g>
<!-- 20&#45;&gt;34 -->
<g id="edge38" class="edge">
<title>20&#45;&gt;34</title>
<path fill="none" stroke="#ff0000" d="M2092.791,-178.0219C2126.4597,-162.7658 2180.3718,-138.3369 2216.4549,-121.9868"/>
<polygon fill="#ff0000" stroke="#ff0000" points="2218.01,-125.1247 2225.6739,-117.8094 2215.1208,-118.7488 2218.01,-125.1247"/>
<text text-anchor="middle" x="2176.9429" y="-144.8" font-family="Times,serif" font-size="14.00" fill="#000000">no</text>
</g>
<!-- 49 -->
<g id="node40" class="node">
<title>49</title>
<ellipse fill="none" stroke="#000000" cx="1888.9429" cy="-18" rx="83.3857" ry="18"/>
<text text-anchor="middle" x="1888.9429" y="-14.3" font-family="Times,serif" font-size="14.00" fill="#000000">leaf=&#45;0.0739130452</text>
</g>
<!-- 33&#45;&gt;49 -->
<g id="edge39" class="edge">
<title>33&#45;&gt;49</title>
<path fill="none" stroke="#0000ff" d="M2032.9866,-90.4382C2005.059,-76.3937 1962.4853,-54.9838 1930.8569,-39.0781"/>
<polygon fill="#0000ff" stroke="#0000ff" points="1932.3415,-35.9071 1921.8351,-34.5412 1929.1965,-42.1609 1932.3415,-35.9071"/>
<text text-anchor="middle" x="2020.4429" y="-57.8" font-family="Times,serif" font-size="14.00" fill="#000000">yes, missing</text>
</g>
<!-- 50 -->
<g id="node41" class="node">
<title>50</title>
<ellipse fill="none" stroke="#000000" cx="2072.9429" cy="-18" rx="83.3857" ry="18"/>
<text text-anchor="middle" x="2072.9429" y="-14.3" font-family="Times,serif" font-size="14.00" fill="#000000">leaf=&#45;0.0230769236</text>
</g>
<!-- 33&#45;&gt;50 -->
<g id="edge40" class="edge">
<title>33&#45;&gt;50</title>
<path fill="none" stroke="#ff0000" d="M2064.2221,-86.9735C2065.7118,-75.1918 2067.6881,-59.5607 2069.3827,-46.1581"/>
<polygon fill="#ff0000" stroke="#ff0000" points="2072.8845,-46.3634 2070.6666,-36.0034 2065.9398,-45.4853 2072.8845,-46.3634"/>
<text text-anchor="middle" x="2075.9429" y="-57.8" font-family="Times,serif" font-size="14.00" fill="#000000">no</text>
</g>
<!-- 51 -->
<g id="node42" class="node">
<title>51</title>
<ellipse fill="none" stroke="#000000" cx="2253.9429" cy="-18" rx="79.8859" ry="18"/>
<text text-anchor="middle" x="2253.9429" y="-14.3" font-family="Times,serif" font-size="14.00" fill="#000000">leaf=0.0250000004</text>
</g>
<!-- 34&#45;&gt;51 -->
<g id="edge41" class="edge">
<title>34&#45;&gt;51</title>
<path fill="none" stroke="#0000ff" d="M2253.9429,-86.9735C2253.9429,-75.1918 2253.9429,-59.5607 2253.9429,-46.1581"/>
<polygon fill="#0000ff" stroke="#0000ff" points="2257.443,-46.0033 2253.9429,-36.0034 2250.443,-46.0034 2257.443,-46.0033"/>
<text text-anchor="middle" x="2288.4429" y="-57.8" font-family="Times,serif" font-size="14.00" fill="#000000">yes, missing</text>
</g>
<!-- 52 -->
<g id="node43" class="node">
<title>52</title>
<ellipse fill="none" stroke="#000000" cx="2434.9429" cy="-18" rx="83.3857" ry="18"/>
<text text-anchor="middle" x="2434.9429" y="-14.3" font-family="Times,serif" font-size="14.00" fill="#000000">leaf=&#45;0.0375000015</text>
</g>
<!-- 34&#45;&gt;52 -->
<g id="edge42" class="edge">
<title>34&#45;&gt;52</title>
<path fill="none" stroke="#ff0000" d="M2281.4329,-91.7866C2310.6309,-77.7522 2357.2002,-55.3681 2391.3977,-38.9306"/>
<polygon fill="#ff0000" stroke="#ff0000" points="2393.1938,-41.9507 2400.6904,-34.4639 2390.1612,-35.6416 2393.1938,-41.9507"/>
<text text-anchor="middle" x="2362.9429" y="-57.8" font-family="Times,serif" font-size="14.00" fill="#000000">no</text>
</g>
<!-- 21 -->
<g id="node46" class="node">
<title>21</title>
<ellipse fill="none" stroke="#000000" cx="2336.9429" cy="-192" rx="79.8859" ry="18"/>
<text text-anchor="middle" x="2336.9429" y="-188.3" font-family="Times,serif" font-size="14.00" fill="#000000">leaf=0.0789473727</text>
</g>
<!-- 13&#45;&gt;21 -->
<g id="edge45" class="edge">
<title>13&#45;&gt;21</title>
<path fill="none" stroke="#0000ff" d="M2392.3107,-261.8116C2382.33,-249.2272 2368.617,-231.9369 2357.3354,-217.7122"/>
<polygon fill="#0000ff" stroke="#0000ff" points="2359.9767,-215.4101 2351.0205,-209.75 2354.4922,-219.7599 2359.9767,-215.4101"/>
<text text-anchor="middle" x="2410.4429" y="-231.8" font-family="Times,serif" font-size="14.00" fill="#000000">yes, missing</text>
</g>
<!-- 22 -->
<g id="node47" class="node">
<title>22</title>
<ellipse fill="none" stroke="#000000" cx="2517.9429" cy="-192" rx="83.3857" ry="18"/>
<text text-anchor="middle" x="2517.9429" y="-188.3" font-family="Times,serif" font-size="14.00" fill="#000000">leaf=&#45;0.0700000003</text>
</g>
<!-- 13&#45;&gt;22 -->
<g id="edge46" class="edge">
<title>13&#45;&gt;22</title>
<path fill="none" stroke="#ff0000" d="M2426.2253,-263.245C2443.3242,-249.9627 2468.0483,-230.7574 2487.5188,-215.633"/>
<polygon fill="#ff0000" stroke="#ff0000" points="2489.7539,-218.3287 2495.5042,-209.4301 2485.4597,-212.8006 2489.7539,-218.3287"/>
<text text-anchor="middle" x="2475.9429" y="-231.8" font-family="Times,serif" font-size="14.00" fill="#000000">no</text>
</g>
<!-- 23 -->
<g id="node48" class="node">
<title>23</title>
<ellipse fill="none" stroke="#000000" cx="2705.9429" cy="-192" rx="58.4896" ry="18"/>
<text text-anchor="middle" x="2705.9429" y="-188.3" font-family="Times,serif" font-size="14.00" fill="#000000">Ticket&lt;103.5</text>
</g>
<!-- 14&#45;&gt;23 -->
<g id="edge47" class="edge">
<title>14&#45;&gt;23</title>
<path fill="none" stroke="#0000ff" d="M2705.9429,-260.9735C2705.9429,-249.1918 2705.9429,-233.5607 2705.9429,-220.1581"/>
<polygon fill="#0000ff" stroke="#0000ff" points="2709.443,-220.0033 2705.9429,-210.0034 2702.443,-220.0034 2709.443,-220.0033"/>
<text text-anchor="middle" x="2740.4429" y="-231.8" font-family="Times,serif" font-size="14.00" fill="#000000">yes, missing</text>
</g>
<!-- 24 -->
<g id="node49" class="node">
<title>24</title>
<ellipse fill="none" stroke="#000000" cx="2948.9429" cy="-192" rx="58.4896" ry="18"/>
<text text-anchor="middle" x="2948.9429" y="-188.3" font-family="Times,serif" font-size="14.00" fill="#000000">Ticket&lt;894.5</text>
</g>
<!-- 14&#45;&gt;24 -->
<g id="edge48" class="edge">
<title>14&#45;&gt;24</title>
<path fill="none" stroke="#ff0000" d="M2744.179,-265.3105C2786.6045,-250.1212 2855.1276,-225.5882 2901.0827,-209.1351"/>
<polygon fill="#ff0000" stroke="#ff0000" points="2902.2939,-212.4191 2910.5289,-205.7531 2899.9344,-205.8288 2902.2939,-212.4191"/>
<text text-anchor="middle" x="2849.9429" y="-231.8" font-family="Times,serif" font-size="14.00" fill="#000000">no</text>
</g>
<!-- 35 -->
<g id="node50" class="node">
<title>35</title>
<ellipse fill="none" stroke="#000000" cx="2615.9429" cy="-105" rx="53.8905" ry="18"/>
<text text-anchor="middle" x="2615.9429" y="-101.3" font-family="Times,serif" font-size="14.00" fill="#000000">Ticket&lt;20.5</text>
</g>
<!-- 23&#45;&gt;35 -->
<g id="edge49" class="edge">
<title>23&#45;&gt;35</title>
<path fill="none" stroke="#0000ff" d="M2683.3296,-175.1552C2675.9627,-169.3447 2667.8963,-162.6258 2660.9429,-156 2652.6508,-148.0986 2644.1819,-138.8629 2636.8607,-130.4385"/>
<polygon fill="#0000ff" stroke="#0000ff" points="2639.3915,-128.0123 2630.2363,-122.68 2634.068,-132.5577 2639.3915,-128.0123"/>
<text text-anchor="middle" x="2695.4429" y="-144.8" font-family="Times,serif" font-size="14.00" fill="#000000">yes, missing</text>
</g>
<!-- 36 -->
<g id="node51" class="node">
<title>36</title>
<ellipse fill="none" stroke="#000000" cx="2767.9429" cy="-105" rx="79.8859" ry="18"/>
<text text-anchor="middle" x="2767.9429" y="-101.3" font-family="Times,serif" font-size="14.00" fill="#000000">leaf=0.0272727292</text>
</g>
<!-- 23&#45;&gt;36 -->
<g id="edge50" class="edge">
<title>23&#45;&gt;36</title>
<path fill="none" stroke="#ff0000" d="M2718.4895,-174.3943C2727.3388,-161.9767 2739.3424,-145.1329 2749.3074,-131.1498"/>
<polygon fill="#ff0000" stroke="#ff0000" points="2752.2489,-133.0531 2755.2021,-122.8782 2746.5483,-128.9906 2752.2489,-133.0531"/>
<text text-anchor="middle" x="2747.9429" y="-144.8" font-family="Times,serif" font-size="14.00" fill="#000000">no</text>
</g>
<!-- 37 -->
<g id="node54" class="node">
<title>37</title>
<ellipse fill="none" stroke="#000000" cx="2948.9429" cy="-105" rx="83.3857" ry="18"/>
<text text-anchor="middle" x="2948.9429" y="-101.3" font-family="Times,serif" font-size="14.00" fill="#000000">leaf=&#45;0.0828877017</text>
</g>
<!-- 24&#45;&gt;37 -->
<g id="edge53" class="edge">
<title>24&#45;&gt;37</title>
<path fill="none" stroke="#0000ff" d="M2948.9429,-173.9735C2948.9429,-162.1918 2948.9429,-146.5607 2948.9429,-133.1581"/>
<polygon fill="#0000ff" stroke="#0000ff" points="2952.443,-133.0033 2948.9429,-123.0034 2945.443,-133.0034 2952.443,-133.0033"/>
<text text-anchor="middle" x="2983.4429" y="-144.8" font-family="Times,serif" font-size="14.00" fill="#000000">yes, missing</text>
</g>
<!-- 38 -->
<g id="node55" class="node">
<title>38</title>
<ellipse fill="none" stroke="#000000" cx="3101.9429" cy="-105" rx="51.9908" ry="18"/>
<text text-anchor="middle" x="3101.9429" y="-101.3" font-family="Times,serif" font-size="14.00" fill="#000000">Ticket&lt;907</text>
</g>
<!-- 24&#45;&gt;38 -->
<g id="edge54" class="edge">
<title>24&#45;&gt;38</title>
<path fill="none" stroke="#ff0000" d="M2981.3175,-176.9748C2994.1322,-170.7848 3008.8911,-163.3495 3021.9429,-156 3037.9881,-146.9649 3055.2763,-136.0949 3069.6617,-126.7156"/>
<polygon fill="#ff0000" stroke="#ff0000" points="3071.7732,-129.5161 3078.2065,-121.0981 3067.9278,-123.6669 3071.7732,-129.5161"/>
<text text-anchor="middle" x="3053.9429" y="-144.8" font-family="Times,serif" font-size="14.00" fill="#000000">no</text>
</g>
<!-- 53 -->
<g id="node52" class="node">
<title>53</title>
<ellipse fill="none" stroke="#000000" cx="2615.9429" cy="-18" rx="79.8859" ry="18"/>
<text text-anchor="middle" x="2615.9429" y="-14.3" font-family="Times,serif" font-size="14.00" fill="#000000">leaf=0.0250000004</text>
</g>
<!-- 35&#45;&gt;53 -->
<g id="edge51" class="edge">
<title>35&#45;&gt;53</title>
<path fill="none" stroke="#0000ff" d="M2615.9429,-86.9735C2615.9429,-75.1918 2615.9429,-59.5607 2615.9429,-46.1581"/>
<polygon fill="#0000ff" stroke="#0000ff" points="2619.443,-46.0033 2615.9429,-36.0034 2612.443,-46.0034 2619.443,-46.0033"/>
<text text-anchor="middle" x="2650.4429" y="-57.8" font-family="Times,serif" font-size="14.00" fill="#000000">yes, missing</text>
</g>
<!-- 54 -->
<g id="node53" class="node">
<title>54</title>
<ellipse fill="none" stroke="#000000" cx="2796.9429" cy="-18" rx="83.3857" ry="18"/>
<text text-anchor="middle" x="2796.9429" y="-14.3" font-family="Times,serif" font-size="14.00" fill="#000000">leaf=&#45;0.0578947365</text>
</g>
<!-- 35&#45;&gt;54 -->
<g id="edge52" class="edge">
<title>35&#45;&gt;54</title>
<path fill="none" stroke="#ff0000" d="M2647.0579,-90.0442C2676.3121,-75.9828 2720.3885,-54.7969 2753.1811,-39.0347"/>
<polygon fill="#ff0000" stroke="#ff0000" points="2755.0405,-42.0243 2762.5372,-34.5376 2752.008,-35.7153 2755.0405,-42.0243"/>
<text text-anchor="middle" x="2724.9429" y="-57.8" font-family="Times,serif" font-size="14.00" fill="#000000">no</text>
</g>
<!-- 55 -->
<g id="node56" class="node">
<title>55</title>
<ellipse fill="none" stroke="#000000" cx="3042.9429" cy="-18" rx="84.485" ry="18"/>
<text text-anchor="middle" x="3042.9429" y="-14.3" font-family="Times,serif" font-size="14.00" fill="#000000">leaf=0.00769230817</text>
</g>
<!-- 38&#45;&gt;55 -->
<g id="edge55" class="edge">
<title>38&#45;&gt;55</title>
<path fill="none" stroke="#0000ff" d="M3090.0034,-87.3943C3081.6617,-75.0938 3070.3747,-58.4503 3060.9456,-44.5463"/>
<polygon fill="#0000ff" stroke="#0000ff" points="3063.5766,-42.1901 3055.0672,-35.8782 3057.7832,-46.119 3063.5766,-42.1901"/>
<text text-anchor="middle" x="3111.4429" y="-57.8" font-family="Times,serif" font-size="14.00" fill="#000000">yes, missing</text>
</g>
<!-- 56 -->
<g id="node57" class="node">
<title>56</title>
<ellipse fill="none" stroke="#000000" cx="3228.9429" cy="-18" rx="83.3857" ry="18"/>
<text text-anchor="middle" x="3228.9429" y="-14.3" font-family="Times,serif" font-size="14.00" fill="#000000">leaf=&#45;0.0500000007</text>
</g>
<!-- 38&#45;&gt;56 -->
<g id="edge56" class="edge">
<title>38&#45;&gt;56</title>
<path fill="none" stroke="#ff0000" d="M3125.533,-88.8399C3145.1644,-75.3916 3173.3541,-56.0805 3195.3442,-41.0164"/>
<polygon fill="#ff0000" stroke="#ff0000" points="3197.4673,-43.8046 3203.7391,-35.2656 3193.5112,-38.0297 3197.4673,-43.8046"/>
<text text-anchor="middle" x="3179.9429" y="-57.8" font-family="Times,serif" font-size="14.00" fill="#000000">no</text>
</g>
</g>
</svg>
