<?xml version="1.0" encoding="UTF-8" standalone="no"?>
<!DOCTYPE svg PUBLIC "-//W3C//DTD SVG 1.1//EN"
 "http://www.w3.org/Graphics/SVG/1.1/DTD/svg11.dtd">
<!-- Generated by graphviz version 2.40.1 (20161225.0304)
 -->
<!-- Title: %3 Pages: 1 -->
<svg width="2738pt" height="566pt"
 viewBox="0.00 0.00 2737.58 566.00" xmlns="http://www.w3.org/2000/svg" xmlns:xlink="http://www.w3.org/1999/xlink">
<g id="graph0" class="graph" transform="scale(1 1) rotate(0) translate(4 562)">
<title>%3</title>
<polygon fill="#ffffff" stroke="transparent" points="-4,4 -4,-562 2733.5848,-562 2733.5848,4 -4,4"/>
<!-- 0 -->
<g id="node1" class="node">
<title>0</title>
<ellipse fill="none" stroke="#000000" cx="1010.4925" cy="-540" rx="40.0939" ry="18"/>
<text text-anchor="middle" x="1010.4925" y="-536.3" font-family="Times,serif" font-size="14.00" fill="#000000">Sex&lt;0.5</text>
</g>
<!-- 1 -->
<g id="node2" class="node">
<title>1</title>
<ellipse fill="none" stroke="#000000" cx="722.4925" cy="-453" rx="49.2915" ry="18"/>
<text text-anchor="middle" x="722.4925" y="-449.3" font-family="Times,serif" font-size="14.00" fill="#000000">Pclass&lt;2.5</text>
</g>
<!-- 0&#45;&gt;1 -->
<g id="edge1" class="edge">
<title>0&#45;&gt;1</title>
<path fill="none" stroke="#0000ff" d="M976.8916,-529.8497C925.9748,-514.4686 829.0361,-485.185 770.6354,-467.5432"/>
<polygon fill="#0000ff" stroke="#0000ff" points="771.4879,-464.1445 760.903,-464.6032 769.4636,-470.8455 771.4879,-464.1445"/>
<text text-anchor="middle" x="918.9925" y="-492.8" font-family="Times,serif" font-size="14.00" fill="#000000">yes, missing</text>
</g>
<!-- 2 -->
<g id="node3" class="node">
<title>2</title>
<ellipse fill="none" stroke="#000000" cx="1401.4925" cy="-453" rx="41.6928" ry="18"/>
<text text-anchor="middle" x="1401.4925" y="-449.3" font-family="Times,serif" font-size="14.00" fill="#000000">Cabin&lt;6</text>
</g>
<!-- 0&#45;&gt;2 -->
<g id="edge2" class="edge">
<title>0&#45;&gt;2</title>
<path fill="none" stroke="#ff0000" d="M1046.576,-531.9712C1117.5006,-516.19 1275.0392,-481.1367 1354.1843,-463.5264"/>
<polygon fill="#ff0000" stroke="#ff0000" points="1355.3546,-466.8517 1364.3557,-461.2632 1353.8342,-460.0188 1355.3546,-466.8517"/>
<text text-anchor="middle" x="1236.4925" y="-492.8" font-family="Times,serif" font-size="14.00" fill="#000000">no</text>
</g>
<!-- 3 -->
<g id="node4" class="node">
<title>3</title>
<ellipse fill="none" stroke="#000000" cx="477.4925" cy="-366" rx="42.4939" ry="18"/>
<text text-anchor="middle" x="477.4925" y="-362.3" font-family="Times,serif" font-size="14.00" fill="#000000">Age&lt;4.5</text>
</g>
<!-- 1&#45;&gt;3 -->
<g id="edge3" class="edge">
<title>1&#45;&gt;3</title>
<path fill="none" stroke="#0000ff" d="M686.8674,-440.3495C642.5105,-424.5982 566.8438,-397.7288 519.6464,-380.9689"/>
<polygon fill="#0000ff" stroke="#0000ff" points="520.6233,-377.6018 510.0286,-377.5536 518.2809,-384.1982 520.6233,-377.6018"/>
<text text-anchor="middle" x="649.9925" y="-405.8" font-family="Times,serif" font-size="14.00" fill="#000000">yes, missing</text>
</g>
<!-- 4 -->
<g id="node5" class="node">
<title>4</title>
<ellipse fill="none" stroke="#000000" cx="722.4925" cy="-366" rx="73.387" ry="18"/>
<text text-anchor="middle" x="722.4925" y="-362.3" font-family="Times,serif" font-size="14.00" fill="#000000">Fare&lt;23.3500004</text>
</g>
<!-- 1&#45;&gt;4 -->
<g id="edge4" class="edge">
<title>1&#45;&gt;4</title>
<path fill="none" stroke="#ff0000" d="M722.4925,-434.9735C722.4925,-423.1918 722.4925,-407.5607 722.4925,-394.1581"/>
<polygon fill="#ff0000" stroke="#ff0000" points="725.9926,-394.0033 722.4925,-384.0034 718.9926,-394.0034 725.9926,-394.0033"/>
<text text-anchor="middle" x="729.4925" y="-405.8" font-family="Times,serif" font-size="14.00" fill="#000000">no</text>
</g>
<!-- 5 -->
<g id="node24" class="node">
<title>5</title>
<ellipse fill="none" stroke="#000000" cx="1401.4925" cy="-366" rx="68.4888" ry="18"/>
<text text-anchor="middle" x="1401.4925" y="-362.3" font-family="Times,serif" font-size="14.00" fill="#000000">Age&lt;38.893322</text>
</g>
<!-- 2&#45;&gt;5 -->
<g id="edge23" class="edge">
<title>2&#45;&gt;5</title>
<path fill="none" stroke="#0000ff" d="M1401.4925,-434.9735C1401.4925,-423.1918 1401.4925,-407.5607 1401.4925,-394.1581"/>
<polygon fill="#0000ff" stroke="#0000ff" points="1404.9926,-394.0033 1401.4925,-384.0034 1397.9926,-394.0034 1404.9926,-394.0033"/>
<text text-anchor="middle" x="1435.9925" y="-405.8" font-family="Times,serif" font-size="14.00" fill="#000000">yes, missing</text>
</g>
<!-- 6 -->
<g id="node25" class="node">
<title>6</title>
<ellipse fill="none" stroke="#000000" cx="1938.4925" cy="-366" rx="42.4939" ry="18"/>
<text text-anchor="middle" x="1938.4925" y="-362.3" font-family="Times,serif" font-size="14.00" fill="#000000">Age&lt;9.5</text>
</g>
<!-- 2&#45;&gt;6 -->
<g id="edge24" class="edge">
<title>2&#45;&gt;6</title>
<path fill="none" stroke="#ff0000" d="M1440.5448,-446.6731C1536.3107,-431.1579 1782.7047,-391.2394 1888.7451,-374.0596"/>
<polygon fill="#ff0000" stroke="#ff0000" points="1889.5493,-377.4751 1898.8609,-372.4208 1888.4298,-370.5652 1889.5493,-377.4751"/>
<text text-anchor="middle" x="1709.4925" y="-405.8" font-family="Times,serif" font-size="14.00" fill="#000000">no</text>
</g>
<!-- 7 -->
<g id="node6" class="node">
<title>7</title>
<ellipse fill="none" stroke="#000000" cx="295.4925" cy="-279" rx="84.485" ry="18"/>
<text text-anchor="middle" x="295.4925" y="-275.3" font-family="Times,serif" font-size="14.00" fill="#000000">leaf=0.00499999989</text>
</g>
<!-- 3&#45;&gt;7 -->
<g id="edge5" class="edge">
<title>3&#45;&gt;7</title>
<path fill="none" stroke="#0000ff" d="M449.055,-352.4063C419.6294,-338.3402 373.2881,-316.188 339.2036,-299.8949"/>
<polygon fill="#0000ff" stroke="#0000ff" points="340.471,-296.6214 329.9393,-295.4663 337.452,-302.9369 340.471,-296.6214"/>
<text text-anchor="middle" x="431.9925" y="-318.8" font-family="Times,serif" font-size="14.00" fill="#000000">yes, missing</text>
</g>
<!-- 8 -->
<g id="node7" class="node">
<title>8</title>
<ellipse fill="none" stroke="#000000" cx="477.4925" cy="-279" rx="79.8859" ry="18"/>
<text text-anchor="middle" x="477.4925" y="-275.3" font-family="Times,serif" font-size="14.00" fill="#000000">leaf=0.0175460111</text>
</g>
<!-- 3&#45;&gt;8 -->
<g id="edge6" class="edge">
<title>3&#45;&gt;8</title>
<path fill="none" stroke="#ff0000" d="M477.4925,-347.9735C477.4925,-336.1918 477.4925,-320.5607 477.4925,-307.1581"/>
<polygon fill="#ff0000" stroke="#ff0000" points="480.9926,-307.0033 477.4925,-297.0034 473.9926,-307.0034 480.9926,-307.0033"/>
<text text-anchor="middle" x="484.4925" y="-318.8" font-family="Times,serif" font-size="14.00" fill="#000000">no</text>
</g>
<!-- 9 -->
<g id="node8" class="node">
<title>9</title>
<ellipse fill="none" stroke="#000000" cx="648.4925" cy="-279" rx="72.5877" ry="18"/>
<text text-anchor="middle" x="648.4925" y="-275.3" font-family="Times,serif" font-size="14.00" fill="#000000">Age&lt;24.0625248</text>
</g>
<!-- 4&#45;&gt;9 -->
<g id="edge7" class="edge">
<title>4&#45;&gt;9</title>
<path fill="none" stroke="#0000ff" d="M707.0028,-348.0863C702.0362,-342.3225 696.5209,-335.9013 691.4925,-330 684.507,-321.8019 676.9221,-312.8296 670.0951,-304.7275"/>
<polygon fill="#0000ff" stroke="#0000ff" points="672.6884,-302.3733 663.5711,-296.9764 667.3329,-306.881 672.6884,-302.3733"/>
<text text-anchor="middle" x="725.9925" y="-318.8" font-family="Times,serif" font-size="14.00" fill="#000000">yes, missing</text>
</g>
<!-- 10 -->
<g id="node9" class="node">
<title>10</title>
<ellipse fill="none" stroke="#000000" cx="797.4925" cy="-279" rx="58.4896" ry="18"/>
<text text-anchor="middle" x="797.4925" y="-275.3" font-family="Times,serif" font-size="14.00" fill="#000000">Ticket&lt;456.5</text>
</g>
<!-- 4&#45;&gt;10 -->
<g id="edge8" class="edge">
<title>4&#45;&gt;10</title>
<path fill="none" stroke="#ff0000" d="M742.5091,-348.3451C748.5212,-342.7027 754.9795,-336.2855 760.4925,-330 767.1669,-322.3905 773.8503,-313.6189 779.6642,-305.5195"/>
<polygon fill="#ff0000" stroke="#ff0000" points="782.7071,-307.2765 785.59,-297.0814 776.9786,-303.2535 782.7071,-307.2765"/>
<text text-anchor="middle" x="779.4925" y="-318.8" font-family="Times,serif" font-size="14.00" fill="#000000">no</text>
</g>
<!-- 15 -->
<g id="node10" class="node">
<title>15</title>
<ellipse fill="none" stroke="#000000" cx="460.4925" cy="-192" rx="73.387" ry="18"/>
<text text-anchor="middle" x="460.4925" y="-188.3" font-family="Times,serif" font-size="14.00" fill="#000000">Fare&lt;7.90210009</text>
</g>
<!-- 9&#45;&gt;15 -->
<g id="edge9" class="edge">
<title>9&#45;&gt;15</title>
<path fill="none" stroke="#0000ff" d="M614.0104,-263.0429C583.1012,-248.7391 537.6066,-227.6858 504.1645,-212.2099"/>
<polygon fill="#0000ff" stroke="#0000ff" points="505.6191,-209.0265 495.0738,-208.0031 502.6792,-215.3793 505.6191,-209.0265"/>
<text text-anchor="middle" x="600.9925" y="-231.8" font-family="Times,serif" font-size="14.00" fill="#000000">yes, missing</text>
</g>
<!-- 16 -->
<g id="node11" class="node">
<title>16</title>
<ellipse fill="none" stroke="#000000" cx="648.4925" cy="-192" rx="58.4896" ry="18"/>
<text text-anchor="middle" x="648.4925" y="-188.3" font-family="Times,serif" font-size="14.00" fill="#000000">Ticket&lt;267.5</text>
</g>
<!-- 9&#45;&gt;16 -->
<g id="edge10" class="edge">
<title>9&#45;&gt;16</title>
<path fill="none" stroke="#ff0000" d="M648.4925,-260.9735C648.4925,-249.1918 648.4925,-233.5607 648.4925,-220.1581"/>
<polygon fill="#ff0000" stroke="#ff0000" points="651.9926,-220.0033 648.4925,-210.0034 644.9926,-220.0034 651.9926,-220.0033"/>
<text text-anchor="middle" x="655.4925" y="-231.8" font-family="Times,serif" font-size="14.00" fill="#000000">no</text>
</g>
<!-- 17 -->
<g id="node22" class="node">
<title>17</title>
<ellipse fill="none" stroke="#000000" cx="761.4925" cy="-192" rx="36.2938" ry="18"/>
<text text-anchor="middle" x="761.4925" y="-188.3" font-family="Times,serif" font-size="14.00" fill="#000000">leaf=&#45;0</text>
</g>
<!-- 10&#45;&gt;17 -->
<g id="edge21" class="edge">
<title>10&#45;&gt;17</title>
<path fill="none" stroke="#0000ff" d="M790.0333,-260.9735C785.0284,-248.8784 778.3448,-232.7263 772.7036,-219.0934"/>
<polygon fill="#0000ff" stroke="#0000ff" points="775.8766,-217.6076 768.819,-209.7057 769.4085,-220.2841 775.8766,-217.6076"/>
<text text-anchor="middle" x="816.9925" y="-231.8" font-family="Times,serif" font-size="14.00" fill="#000000">yes, missing</text>
</g>
<!-- 18 -->
<g id="node23" class="node">
<title>18</title>
<ellipse fill="none" stroke="#000000" cx="899.4925" cy="-192" rx="83.3857" ry="18"/>
<text text-anchor="middle" x="899.4925" y="-188.3" font-family="Times,serif" font-size="14.00" fill="#000000">leaf=&#45;0.0153846154</text>
</g>
<!-- 10&#45;&gt;18 -->
<g id="edge22" class="edge">
<title>10&#45;&gt;18</title>
<path fill="none" stroke="#ff0000" d="M826.7085,-263.2326C836.3102,-257.4466 846.7537,-250.4692 855.4925,-243 864.1152,-235.6301 872.5206,-226.5231 879.6354,-218.0535"/>
<polygon fill="#ff0000" stroke="#ff0000" points="882.4254,-220.1702 886.0263,-210.2061 876.9976,-215.7499 882.4254,-220.1702"/>
<text text-anchor="middle" x="877.4925" y="-231.8" font-family="Times,serif" font-size="14.00" fill="#000000">no</text>
</g>
<!-- 27 -->
<g id="node12" class="node">
<title>27</title>
<ellipse fill="none" stroke="#000000" cx="266.4925" cy="-105" rx="72.5877" ry="18"/>
<text text-anchor="middle" x="266.4925" y="-101.3" font-family="Times,serif" font-size="14.00" fill="#000000">Age&lt;18.2660103</text>
</g>
<!-- 15&#45;&gt;27 -->
<g id="edge11" class="edge">
<title>15&#45;&gt;27</title>
<path fill="none" stroke="#0000ff" d="M424.9099,-176.0429C392.9142,-161.6943 345.7732,-140.5537 311.2341,-125.0645"/>
<polygon fill="#0000ff" stroke="#0000ff" points="312.4062,-121.7544 301.8495,-120.856 309.5418,-128.1415 312.4062,-121.7544"/>
<text text-anchor="middle" x="409.9925" y="-144.8" font-family="Times,serif" font-size="14.00" fill="#000000">yes, missing</text>
</g>
<!-- 28 -->
<g id="node13" class="node">
<title>28</title>
<ellipse fill="none" stroke="#000000" cx="460.4925" cy="-105" rx="72.5877" ry="18"/>
<text text-anchor="middle" x="460.4925" y="-101.3" font-family="Times,serif" font-size="14.00" fill="#000000">Age&lt;16.3616581</text>
</g>
<!-- 15&#45;&gt;28 -->
<g id="edge12" class="edge">
<title>15&#45;&gt;28</title>
<path fill="none" stroke="#ff0000" d="M460.4925,-173.9735C460.4925,-162.1918 460.4925,-146.5607 460.4925,-133.1581"/>
<polygon fill="#ff0000" stroke="#ff0000" points="463.9926,-133.0033 460.4925,-123.0034 456.9926,-133.0034 463.9926,-133.0033"/>
<text text-anchor="middle" x="467.4925" y="-144.8" font-family="Times,serif" font-size="14.00" fill="#000000">no</text>
</g>
<!-- 29 -->
<g id="node18" class="node">
<title>29</title>
<ellipse fill="none" stroke="#000000" cx="648.4925" cy="-105" rx="84.485" ry="18"/>
<text text-anchor="middle" x="648.4925" y="-101.3" font-family="Times,serif" font-size="14.00" fill="#000000">leaf=0.00999999978</text>
</g>
<!-- 16&#45;&gt;29 -->
<g id="edge17" class="edge">
<title>16&#45;&gt;29</title>
<path fill="none" stroke="#0000ff" d="M648.4925,-173.9735C648.4925,-162.1918 648.4925,-146.5607 648.4925,-133.1581"/>
<polygon fill="#0000ff" stroke="#0000ff" points="651.9926,-133.0033 648.4925,-123.0034 644.9926,-133.0034 651.9926,-133.0033"/>
<text text-anchor="middle" x="682.9925" y="-144.8" font-family="Times,serif" font-size="14.00" fill="#000000">yes, missing</text>
</g>
<!-- 30 -->
<g id="node19" class="node">
<title>30</title>
<ellipse fill="none" stroke="#000000" cx="826.4925" cy="-105" rx="51.9908" ry="18"/>
<text text-anchor="middle" x="826.4925" y="-101.3" font-family="Times,serif" font-size="14.00" fill="#000000">Ticket&lt;466</text>
</g>
<!-- 16&#45;&gt;30 -->
<g id="edge18" class="edge">
<title>16&#45;&gt;30</title>
<path fill="none" stroke="#ff0000" d="M679.9056,-176.6464C709.7914,-162.0393 754.8594,-140.0117 787.1287,-124.2396"/>
<polygon fill="#ff0000" stroke="#ff0000" points="788.8365,-127.3007 796.2838,-119.7649 785.7626,-121.0117 788.8365,-127.3007"/>
<text text-anchor="middle" x="755.4925" y="-144.8" font-family="Times,serif" font-size="14.00" fill="#000000">no</text>
</g>
<!-- 41 -->
<g id="node14" class="node">
<title>41</title>
<ellipse fill="none" stroke="#000000" cx="84.4925" cy="-18" rx="84.485" ry="18"/>
<text text-anchor="middle" x="84.4925" y="-14.3" font-family="Times,serif" font-size="14.00" fill="#000000">leaf=0.00333333341</text>
</g>
<!-- 27&#45;&gt;41 -->
<g id="edge13" class="edge">
<title>27&#45;&gt;41</title>
<path fill="none" stroke="#0000ff" d="M232.6862,-88.8399C203.2139,-74.7514 160.2813,-54.2287 128.2041,-38.8951"/>
<polygon fill="#0000ff" stroke="#0000ff" points="129.5773,-35.6722 119.0456,-34.5171 126.5583,-41.9878 129.5773,-35.6722"/>
<text text-anchor="middle" x="220.9925" y="-57.8" font-family="Times,serif" font-size="14.00" fill="#000000">yes, missing</text>
</g>
<!-- 42 -->
<g id="node15" class="node">
<title>42</title>
<ellipse fill="none" stroke="#000000" cx="266.4925" cy="-18" rx="79.8859" ry="18"/>
<text text-anchor="middle" x="266.4925" y="-14.3" font-family="Times,serif" font-size="14.00" fill="#000000">leaf=0.0142857144</text>
</g>
<!-- 27&#45;&gt;42 -->
<g id="edge14" class="edge">
<title>27&#45;&gt;42</title>
<path fill="none" stroke="#ff0000" d="M266.4925,-86.9735C266.4925,-75.1918 266.4925,-59.5607 266.4925,-46.1581"/>
<polygon fill="#ff0000" stroke="#ff0000" points="269.9926,-46.0033 266.4925,-36.0034 262.9926,-46.0034 269.9926,-46.0033"/>
<text text-anchor="middle" x="273.4925" y="-57.8" font-family="Times,serif" font-size="14.00" fill="#000000">no</text>
</g>
<!-- 43 -->
<g id="node16" class="node">
<title>43</title>
<ellipse fill="none" stroke="#000000" cx="448.4925" cy="-18" rx="84.485" ry="18"/>
<text text-anchor="middle" x="448.4925" y="-14.3" font-family="Times,serif" font-size="14.00" fill="#000000">leaf=0.00833333284</text>
</g>
<!-- 28&#45;&gt;43 -->
<g id="edge15" class="edge">
<title>28&#45;&gt;43</title>
<path fill="none" stroke="#0000ff" d="M458.0061,-86.9735C456.381,-75.1918 454.225,-59.5607 452.3764,-46.1581"/>
<polygon fill="#0000ff" stroke="#0000ff" points="455.8094,-45.4313 450.9757,-36.0034 448.875,-46.3878 455.8094,-45.4313"/>
<text text-anchor="middle" x="489.9925" y="-57.8" font-family="Times,serif" font-size="14.00" fill="#000000">yes, missing</text>
</g>
<!-- 44 -->
<g id="node17" class="node">
<title>44</title>
<ellipse fill="none" stroke="#000000" cx="638.4925" cy="-18" rx="87.1846" ry="18"/>
<text text-anchor="middle" x="638.4925" y="-14.3" font-family="Times,serif" font-size="14.00" fill="#000000">leaf=&#45;0.00476190448</text>
</g>
<!-- 28&#45;&gt;44 -->
<g id="edge16" class="edge">
<title>28&#45;&gt;44</title>
<path fill="none" stroke="#ff0000" d="M493.5558,-88.8399C522.1656,-74.8564 563.7442,-54.5343 595.0384,-39.2388"/>
<polygon fill="#ff0000" stroke="#ff0000" points="596.9471,-42.2017 604.3944,-34.6659 593.8732,-35.9127 596.9471,-42.2017"/>
<text text-anchor="middle" x="567.4925" y="-57.8" font-family="Times,serif" font-size="14.00" fill="#000000">no</text>
</g>
<!-- 45 -->
<g id="node20" class="node">
<title>45</title>
<ellipse fill="none" stroke="#000000" cx="826.4925" cy="-18" rx="83.3857" ry="18"/>
<text text-anchor="middle" x="826.4925" y="-14.3" font-family="Times,serif" font-size="14.00" fill="#000000">leaf=&#45;0.0111111114</text>
</g>
<!-- 30&#45;&gt;45 -->
<g id="edge19" class="edge">
<title>30&#45;&gt;45</title>
<path fill="none" stroke="#0000ff" d="M826.4925,-86.9735C826.4925,-75.1918 826.4925,-59.5607 826.4925,-46.1581"/>
<polygon fill="#0000ff" stroke="#0000ff" points="829.9926,-46.0033 826.4925,-36.0034 822.9926,-46.0034 829.9926,-46.0033"/>
<text text-anchor="middle" x="860.9925" y="-57.8" font-family="Times,serif" font-size="14.00" fill="#000000">yes, missing</text>
</g>
<!-- 46 -->
<g id="node21" class="node">
<title>46</title>
<ellipse fill="none" stroke="#000000" cx="964.4925" cy="-18" rx="36.2938" ry="18"/>
<text text-anchor="middle" x="964.4925" y="-14.3" font-family="Times,serif" font-size="14.00" fill="#000000">leaf=&#45;0</text>
</g>
<!-- 30&#45;&gt;46 -->
<g id="edge20" class="edge">
<title>30&#45;&gt;46</title>
<path fill="none" stroke="#ff0000" d="M858.8893,-90.7948C871.8434,-84.664 886.6958,-77.0536 899.4925,-69 912.9732,-60.5159 926.9892,-49.796 938.5396,-40.3763"/>
<polygon fill="#ff0000" stroke="#ff0000" points="941.0087,-42.8756 946.4713,-33.7976 936.5399,-37.4876 941.0087,-42.8756"/>
<text text-anchor="middle" x="927.4925" y="-57.8" font-family="Times,serif" font-size="14.00" fill="#000000">no</text>
</g>
<!-- 11 -->
<g id="node26" class="node">
<title>11</title>
<ellipse fill="none" stroke="#000000" cx="1224.4925" cy="-279" rx="46.2923" ry="18"/>
<text text-anchor="middle" x="1224.4925" y="-275.3" font-family="Times,serif" font-size="14.00" fill="#000000">Age&lt;17.5</text>
</g>
<!-- 5&#45;&gt;11 -->
<g id="edge25" class="edge">
<title>5&#45;&gt;11</title>
<path fill="none" stroke="#0000ff" d="M1369.028,-350.0429C1338.8708,-335.2198 1293.9665,-313.1482 1262.2261,-297.547"/>
<polygon fill="#0000ff" stroke="#0000ff" points="1263.7566,-294.3994 1253.2382,-293.1292 1260.6688,-300.6816 1263.7566,-294.3994"/>
<text text-anchor="middle" x="1358.9925" y="-318.8" font-family="Times,serif" font-size="14.00" fill="#000000">yes, missing</text>
</g>
<!-- 12 -->
<g id="node27" class="node">
<title>12</title>
<ellipse fill="none" stroke="#000000" cx="1497.4925" cy="-279" rx="48.1917" ry="18"/>
<text text-anchor="middle" x="1497.4925" y="-275.3" font-family="Times,serif" font-size="14.00" fill="#000000">Cabin&lt;0.5</text>
</g>
<!-- 5&#45;&gt;12 -->
<g id="edge26" class="edge">
<title>5&#45;&gt;12</title>
<path fill="none" stroke="#ff0000" d="M1420.9195,-348.3943C1435.5154,-335.1667 1455.6533,-316.9168 1471.6142,-302.4522"/>
<polygon fill="#ff0000" stroke="#ff0000" points="1474.0119,-305.0027 1479.0715,-295.694 1469.3113,-299.8158 1474.0119,-305.0027"/>
<text text-anchor="middle" x="1462.4925" y="-318.8" font-family="Times,serif" font-size="14.00" fill="#000000">no</text>
</g>
<!-- 13 -->
<g id="node40" class="node">
<title>13</title>
<ellipse fill="none" stroke="#000000" cx="1938.4925" cy="-279" rx="41.6928" ry="18"/>
<text text-anchor="middle" x="1938.4925" y="-275.3" font-family="Times,serif" font-size="14.00" fill="#000000">SibSp&lt;2</text>
</g>
<!-- 6&#45;&gt;13 -->
<g id="edge39" class="edge">
<title>6&#45;&gt;13</title>
<path fill="none" stroke="#0000ff" d="M1938.4925,-347.9735C1938.4925,-336.1918 1938.4925,-320.5607 1938.4925,-307.1581"/>
<polygon fill="#0000ff" stroke="#0000ff" points="1941.9926,-307.0033 1938.4925,-297.0034 1934.9926,-307.0034 1941.9926,-307.0033"/>
<text text-anchor="middle" x="1972.9925" y="-318.8" font-family="Times,serif" font-size="14.00" fill="#000000">yes, missing</text>
</g>
<!-- 14 -->
<g id="node41" class="node">
<title>14</title>
<ellipse fill="none" stroke="#000000" cx="2230.4925" cy="-279" rx="58.4896" ry="18"/>
<text text-anchor="middle" x="2230.4925" y="-275.3" font-family="Times,serif" font-size="14.00" fill="#000000">Ticket&lt;114.5</text>
</g>
<!-- 6&#45;&gt;14 -->
<g id="edge40" class="edge">
<title>6&#45;&gt;14</title>
<path fill="none" stroke="#ff0000" d="M1973.1354,-355.6783C2023.9751,-340.5309 2119.1674,-312.1688 2178.4434,-294.5078"/>
<polygon fill="#ff0000" stroke="#ff0000" points="2179.7705,-297.7645 2188.3548,-291.5547 2177.7717,-291.0559 2179.7705,-297.7645"/>
<text text-anchor="middle" x="2109.4925" y="-318.8" font-family="Times,serif" font-size="14.00" fill="#000000">no</text>
</g>
<!-- 19 -->
<g id="node28" class="node">
<title>19</title>
<ellipse fill="none" stroke="#000000" cx="1080.4925" cy="-192" rx="79.8859" ry="18"/>
<text text-anchor="middle" x="1080.4925" y="-188.3" font-family="Times,serif" font-size="14.00" fill="#000000">leaf=0.0127272718</text>
</g>
<!-- 11&#45;&gt;19 -->
<g id="edge27" class="edge">
<title>11&#45;&gt;19</title>
<path fill="none" stroke="#0000ff" d="M1194.0656,-265.3733C1180.7318,-259.0529 1165.0628,-251.1442 1151.4925,-243 1137.7474,-234.7508 1123.2578,-224.6268 1110.9781,-215.5793"/>
<polygon fill="#0000ff" stroke="#0000ff" points="1112.9734,-212.7011 1102.8661,-209.5239 1108.786,-218.3106 1112.9734,-212.7011"/>
<text text-anchor="middle" x="1185.9925" y="-231.8" font-family="Times,serif" font-size="14.00" fill="#000000">yes, missing</text>
</g>
<!-- 20 -->
<g id="node29" class="node">
<title>20</title>
<ellipse fill="none" stroke="#000000" cx="1224.4925" cy="-192" rx="46.2923" ry="18"/>
<text text-anchor="middle" x="1224.4925" y="-188.3" font-family="Times,serif" font-size="14.00" fill="#000000">Age&lt;24.5</text>
</g>
<!-- 11&#45;&gt;20 -->
<g id="edge28" class="edge">
<title>11&#45;&gt;20</title>
<path fill="none" stroke="#ff0000" d="M1224.4925,-260.9735C1224.4925,-249.1918 1224.4925,-233.5607 1224.4925,-220.1581"/>
<polygon fill="#ff0000" stroke="#ff0000" points="1227.9926,-220.0033 1224.4925,-210.0034 1220.9926,-220.0034 1227.9926,-220.0033"/>
<text text-anchor="middle" x="1231.4925" y="-231.8" font-family="Times,serif" font-size="14.00" fill="#000000">no</text>
</g>
<!-- 21 -->
<g id="node34" class="node">
<title>21</title>
<ellipse fill="none" stroke="#000000" cx="1497.4925" cy="-192" rx="72.5877" ry="18"/>
<text text-anchor="middle" x="1497.4925" y="-188.3" font-family="Times,serif" font-size="14.00" fill="#000000">Age&lt;45.6781769</text>
</g>
<!-- 12&#45;&gt;21 -->
<g id="edge33" class="edge">
<title>12&#45;&gt;21</title>
<path fill="none" stroke="#0000ff" d="M1497.4925,-260.9735C1497.4925,-249.1918 1497.4925,-233.5607 1497.4925,-220.1581"/>
<polygon fill="#0000ff" stroke="#0000ff" points="1500.9926,-220.0033 1497.4925,-210.0034 1493.9926,-220.0034 1500.9926,-220.0033"/>
<text text-anchor="middle" x="1531.9925" y="-231.8" font-family="Times,serif" font-size="14.00" fill="#000000">yes, missing</text>
</g>
<!-- 22 -->
<g id="node35" class="node">
<title>22</title>
<ellipse fill="none" stroke="#000000" cx="1706.4925" cy="-192" rx="39.7935" ry="18"/>
<text text-anchor="middle" x="1706.4925" y="-188.3" font-family="Times,serif" font-size="14.00" fill="#000000">Age&lt;43</text>
</g>
<!-- 12&#45;&gt;22 -->
<g id="edge34" class="edge">
<title>12&#45;&gt;22</title>
<path fill="none" stroke="#ff0000" d="M1529.6907,-265.5969C1566.8203,-250.1411 1627.8354,-224.7424 1667.5884,-208.1945"/>
<polygon fill="#ff0000" stroke="#ff0000" points="1669.0757,-211.3666 1676.9627,-204.2923 1666.3855,-204.9042 1669.0757,-211.3666"/>
<text text-anchor="middle" x="1622.4925" y="-231.8" font-family="Times,serif" font-size="14.00" fill="#000000">no</text>
</g>
<!-- 31 -->
<g id="node30" class="node">
<title>31</title>
<ellipse fill="none" stroke="#000000" cx="1028.4925" cy="-105" rx="83.3857" ry="18"/>
<text text-anchor="middle" x="1028.4925" y="-101.3" font-family="Times,serif" font-size="14.00" fill="#000000">leaf=&#45;0.0090909088</text>
</g>
<!-- 20&#45;&gt;31 -->
<g id="edge29" class="edge">
<title>20&#45;&gt;31</title>
<path fill="none" stroke="#0000ff" d="M1188.8356,-180.547C1169.5283,-174.0017 1145.4127,-165.2658 1124.4925,-156 1105.1283,-147.4233 1084.294,-136.566 1066.9994,-127.0756"/>
<polygon fill="#0000ff" stroke="#0000ff" points="1068.23,-123.7559 1057.7873,-121.9669 1064.8351,-129.8776 1068.23,-123.7559"/>
<text text-anchor="middle" x="1158.9925" y="-144.8" font-family="Times,serif" font-size="14.00" fill="#000000">yes, missing</text>
</g>
<!-- 32 -->
<g id="node31" class="node">
<title>32</title>
<ellipse fill="none" stroke="#000000" cx="1175.4925" cy="-105" rx="46.2923" ry="18"/>
<text text-anchor="middle" x="1175.4925" y="-101.3" font-family="Times,serif" font-size="14.00" fill="#000000">Age&lt;28.5</text>
</g>
<!-- 20&#45;&gt;32 -->
<g id="edge30" class="edge">
<title>20&#45;&gt;32</title>
<path fill="none" stroke="#ff0000" d="M1214.5766,-174.3943C1207.7148,-162.211 1198.4532,-145.7669 1190.668,-131.9443"/>
<polygon fill="#ff0000" stroke="#ff0000" points="1193.5188,-129.8737 1185.5618,-122.8782 1187.4197,-133.3089 1193.5188,-129.8737"/>
<text text-anchor="middle" x="1210.4925" y="-144.8" font-family="Times,serif" font-size="14.00" fill="#000000">no</text>
</g>
<!-- 47 -->
<g id="node32" class="node">
<title>47</title>
<ellipse fill="none" stroke="#000000" cx="1139.4925" cy="-18" rx="84.485" ry="18"/>
<text text-anchor="middle" x="1139.4925" y="-14.3" font-family="Times,serif" font-size="14.00" fill="#000000">leaf=0.00999999978</text>
</g>
<!-- 32&#45;&gt;47 -->
<g id="edge31" class="edge">
<title>32&#45;&gt;47</title>
<path fill="none" stroke="#0000ff" d="M1168.0333,-86.9735C1163.0615,-74.9585 1156.4332,-58.9401 1150.8158,-45.3646"/>
<polygon fill="#0000ff" stroke="#0000ff" points="1153.9998,-43.9053 1146.9422,-36.0034 1147.5317,-46.5818 1153.9998,-43.9053"/>
<text text-anchor="middle" x="1194.9925" y="-57.8" font-family="Times,serif" font-size="14.00" fill="#000000">yes, missing</text>
</g>
<!-- 48 -->
<g id="node33" class="node">
<title>48</title>
<ellipse fill="none" stroke="#000000" cx="1326.4925" cy="-18" rx="84.485" ry="18"/>
<text text-anchor="middle" x="1326.4925" y="-14.3" font-family="Times,serif" font-size="14.00" fill="#000000">leaf=0.00124999997</text>
</g>
<!-- 32&#45;&gt;48 -->
<g id="edge32" class="edge">
<title>32&#45;&gt;48</title>
<path fill="none" stroke="#ff0000" d="M1201.4503,-90.0442C1225.3143,-76.2947 1261.001,-55.7335 1288.1493,-40.0918"/>
<polygon fill="#ff0000" stroke="#ff0000" points="1290.0819,-43.0177 1296.9994,-34.9927 1286.5873,-36.9524 1290.0819,-43.0177"/>
<text text-anchor="middle" x="1267.4925" y="-57.8" font-family="Times,serif" font-size="14.00" fill="#000000">no</text>
</g>
<!-- 33 -->
<g id="node36" class="node">
<title>33</title>
<ellipse fill="none" stroke="#000000" cx="1326.4925" cy="-105" rx="87.1846" ry="18"/>
<text text-anchor="middle" x="1326.4925" y="-101.3" font-family="Times,serif" font-size="14.00" fill="#000000">leaf=&#45;0.00499999989</text>
</g>
<!-- 21&#45;&gt;33 -->
<g id="edge35" class="edge">
<title>21&#45;&gt;33</title>
<path fill="none" stroke="#0000ff" d="M1465.3287,-175.636C1437.8858,-161.6738 1398.237,-141.5016 1368.33,-126.2857"/>
<polygon fill="#0000ff" stroke="#0000ff" points="1369.8854,-123.1502 1359.3855,-121.735 1366.7112,-129.3891 1369.8854,-123.1502"/>
<text text-anchor="middle" x="1456.9925" y="-144.8" font-family="Times,serif" font-size="14.00" fill="#000000">yes, missing</text>
</g>
<!-- 34 -->
<g id="node37" class="node">
<title>34</title>
<ellipse fill="none" stroke="#000000" cx="1516.4925" cy="-105" rx="84.485" ry="18"/>
<text text-anchor="middle" x="1516.4925" y="-101.3" font-family="Times,serif" font-size="14.00" fill="#000000">leaf=0.00222222228</text>
</g>
<!-- 21&#45;&gt;34 -->
<g id="edge36" class="edge">
<title>21&#45;&gt;34</title>
<path fill="none" stroke="#ff0000" d="M1501.4293,-173.9735C1504.0023,-162.1918 1507.416,-146.5607 1510.343,-133.1581"/>
<polygon fill="#ff0000" stroke="#ff0000" points="1513.8464,-133.5199 1512.5607,-123.0034 1507.0076,-132.0263 1513.8464,-133.5199"/>
<text text-anchor="middle" x="1515.4925" y="-144.8" font-family="Times,serif" font-size="14.00" fill="#000000">no</text>
</g>
<!-- 35 -->
<g id="node38" class="node">
<title>35</title>
<ellipse fill="none" stroke="#000000" cx="1706.4925" cy="-105" rx="87.1846" ry="18"/>
<text text-anchor="middle" x="1706.4925" y="-101.3" font-family="Times,serif" font-size="14.00" fill="#000000">leaf=&#45;0.00181818183</text>
</g>
<!-- 22&#45;&gt;35 -->
<g id="edge37" class="edge">
<title>22&#45;&gt;35</title>
<path fill="none" stroke="#0000ff" d="M1706.4925,-173.9735C1706.4925,-162.1918 1706.4925,-146.5607 1706.4925,-133.1581"/>
<polygon fill="#0000ff" stroke="#0000ff" points="1709.9926,-133.0033 1706.4925,-123.0034 1702.9926,-133.0034 1709.9926,-133.0033"/>
<text text-anchor="middle" x="1740.9925" y="-144.8" font-family="Times,serif" font-size="14.00" fill="#000000">yes, missing</text>
</g>
<!-- 36 -->
<g id="node39" class="node">
<title>36</title>
<ellipse fill="none" stroke="#000000" cx="1894.4925" cy="-105" rx="83.3857" ry="18"/>
<text text-anchor="middle" x="1894.4925" y="-101.3" font-family="Times,serif" font-size="14.00" fill="#000000">leaf=&#45;0.0115789473</text>
</g>
<!-- 22&#45;&gt;36 -->
<g id="edge38" class="edge">
<title>22&#45;&gt;36</title>
<path fill="none" stroke="#ff0000" d="M1734.638,-178.9752C1765.1038,-164.8767 1814.1168,-142.1951 1849.8481,-125.6599"/>
<polygon fill="#ff0000" stroke="#ff0000" points="1851.4809,-128.761 1859.0863,-121.3848 1848.541,-122.4082 1851.4809,-128.761"/>
<text text-anchor="middle" x="1819.4925" y="-144.8" font-family="Times,serif" font-size="14.00" fill="#000000">no</text>
</g>
<!-- 23 -->
<g id="node42" class="node">
<title>23</title>
<ellipse fill="none" stroke="#000000" cx="1871.4925" cy="-192" rx="79.8859" ry="18"/>
<text text-anchor="middle" x="1871.4925" y="-188.3" font-family="Times,serif" font-size="14.00" fill="#000000">leaf=0.0155555559</text>
</g>
<!-- 13&#45;&gt;23 -->
<g id="edge41" class="edge">
<title>13&#45;&gt;23</title>
<path fill="none" stroke="#0000ff" d="M1925.2555,-261.8116C1915.564,-249.2272 1902.2485,-231.9369 1891.2939,-217.7122"/>
<polygon fill="#0000ff" stroke="#0000ff" points="1894.0366,-215.5373 1885.162,-209.75 1888.4906,-219.8084 1894.0366,-215.5373"/>
<text text-anchor="middle" x="1943.9925" y="-231.8" font-family="Times,serif" font-size="14.00" fill="#000000">yes, missing</text>
</g>
<!-- 24 -->
<g id="node43" class="node">
<title>24</title>
<ellipse fill="none" stroke="#000000" cx="2048.4925" cy="-192" rx="78.7863" ry="18"/>
<text text-anchor="middle" x="2048.4925" y="-188.3" font-family="Times,serif" font-size="14.00" fill="#000000">leaf=&#45;0.012941177</text>
</g>
<!-- 13&#45;&gt;24 -->
<g id="edge42" class="edge">
<title>13&#45;&gt;24</title>
<path fill="none" stroke="#ff0000" d="M1958.6682,-263.0429C1975.417,-249.7961 1999.4851,-230.7604 2018.4927,-215.7271"/>
<polygon fill="#ff0000" stroke="#ff0000" points="2020.8864,-218.2964 2026.5585,-209.3478 2016.544,-212.806 2020.8864,-218.2964"/>
<text text-anchor="middle" x="2007.4925" y="-231.8" font-family="Times,serif" font-size="14.00" fill="#000000">no</text>
</g>
<!-- 25 -->
<g id="node44" class="node">
<title>25</title>
<ellipse fill="none" stroke="#000000" cx="2230.4925" cy="-192" rx="72.5877" ry="18"/>
<text text-anchor="middle" x="2230.4925" y="-188.3" font-family="Times,serif" font-size="14.00" fill="#000000">Age&lt;41.4017715</text>
</g>
<!-- 14&#45;&gt;25 -->
<g id="edge43" class="edge">
<title>14&#45;&gt;25</title>
<path fill="none" stroke="#0000ff" d="M2230.4925,-260.9735C2230.4925,-249.1918 2230.4925,-233.5607 2230.4925,-220.1581"/>
<polygon fill="#0000ff" stroke="#0000ff" points="2233.9926,-220.0033 2230.4925,-210.0034 2226.9926,-220.0034 2233.9926,-220.0033"/>
<text text-anchor="middle" x="2264.9925" y="-231.8" font-family="Times,serif" font-size="14.00" fill="#000000">yes, missing</text>
</g>
<!-- 26 -->
<g id="node45" class="node">
<title>26</title>
<ellipse fill="none" stroke="#000000" cx="2428.4925" cy="-192" rx="58.4896" ry="18"/>
<text text-anchor="middle" x="2428.4925" y="-188.3" font-family="Times,serif" font-size="14.00" fill="#000000">Ticket&lt;894.5</text>
</g>
<!-- 14&#45;&gt;26 -->
<g id="edge44" class="edge">
<title>14&#45;&gt;26</title>
<path fill="none" stroke="#ff0000" d="M2264.0805,-264.2416C2297.5035,-249.5558 2348.9307,-226.959 2385.3572,-210.9534"/>
<polygon fill="#ff0000" stroke="#ff0000" points="2386.9925,-214.0579 2394.7397,-206.8308 2384.1766,-207.6492 2386.9925,-214.0579"/>
<text text-anchor="middle" x="2348.4925" y="-231.8" font-family="Times,serif" font-size="14.00" fill="#000000">no</text>
</g>
<!-- 37 -->
<g id="node46" class="node">
<title>37</title>
<ellipse fill="none" stroke="#000000" cx="2069.4925" cy="-105" rx="73.387" ry="18"/>
<text text-anchor="middle" x="2069.4925" y="-101.3" font-family="Times,serif" font-size="14.00" fill="#000000">Fare&lt;23.7749996</text>
</g>
<!-- 25&#45;&gt;37 -->
<g id="edge45" class="edge">
<title>25&#45;&gt;37</title>
<path fill="none" stroke="#0000ff" d="M2199.8307,-175.4312C2174.0922,-161.5228 2137.1472,-141.5588 2109.1592,-126.4348"/>
<polygon fill="#0000ff" stroke="#0000ff" points="2110.5018,-123.182 2100.0402,-121.5071 2107.1739,-129.3404 2110.5018,-123.182"/>
<text text-anchor="middle" x="2194.9925" y="-144.8" font-family="Times,serif" font-size="14.00" fill="#000000">yes, missing</text>
</g>
<!-- 38 -->
<g id="node47" class="node">
<title>38</title>
<ellipse fill="none" stroke="#000000" cx="2244.4925" cy="-105" rx="83.3857" ry="18"/>
<text text-anchor="middle" x="2244.4925" y="-101.3" font-family="Times,serif" font-size="14.00" fill="#000000">leaf=&#45;0.0114285713</text>
</g>
<!-- 25&#45;&gt;38 -->
<g id="edge46" class="edge">
<title>25&#45;&gt;38</title>
<path fill="none" stroke="#ff0000" d="M2233.3933,-173.9735C2235.2892,-162.1918 2237.8046,-146.5607 2239.9613,-133.1581"/>
<polygon fill="#ff0000" stroke="#ff0000" points="2243.4621,-133.4324 2241.5954,-123.0034 2236.551,-132.3203 2243.4621,-133.4324"/>
<text text-anchor="middle" x="2245.4925" y="-144.8" font-family="Times,serif" font-size="14.00" fill="#000000">no</text>
</g>
<!-- 39 -->
<g id="node50" class="node">
<title>39</title>
<ellipse fill="none" stroke="#000000" cx="2428.4925" cy="-105" rx="83.3857" ry="18"/>
<text text-anchor="middle" x="2428.4925" y="-101.3" font-family="Times,serif" font-size="14.00" fill="#000000">leaf=&#45;0.0165079366</text>
</g>
<!-- 26&#45;&gt;39 -->
<g id="edge49" class="edge">
<title>26&#45;&gt;39</title>
<path fill="none" stroke="#0000ff" d="M2428.4925,-173.9735C2428.4925,-162.1918 2428.4925,-146.5607 2428.4925,-133.1581"/>
<polygon fill="#0000ff" stroke="#0000ff" points="2431.9926,-133.0033 2428.4925,-123.0034 2424.9926,-133.0034 2431.9926,-133.0033"/>
<text text-anchor="middle" x="2462.9925" y="-144.8" font-family="Times,serif" font-size="14.00" fill="#000000">yes, missing</text>
</g>
<!-- 40 -->
<g id="node51" class="node">
<title>40</title>
<ellipse fill="none" stroke="#000000" cx="2581.4925" cy="-105" rx="51.9908" ry="18"/>
<text text-anchor="middle" x="2581.4925" y="-101.3" font-family="Times,serif" font-size="14.00" fill="#000000">Ticket&lt;907</text>
</g>
<!-- 26&#45;&gt;40 -->
<g id="edge50" class="edge">
<title>26&#45;&gt;40</title>
<path fill="none" stroke="#ff0000" d="M2460.8671,-176.9748C2473.6818,-170.7848 2488.4407,-163.3495 2501.4925,-156 2517.5377,-146.9649 2534.8259,-136.0949 2549.2113,-126.7156"/>
<polygon fill="#ff0000" stroke="#ff0000" points="2551.3228,-129.5161 2557.7561,-121.0981 2547.4774,-123.6669 2551.3228,-129.5161"/>
<text text-anchor="middle" x="2533.4925" y="-144.8" font-family="Times,serif" font-size="14.00" fill="#000000">no</text>
</g>
<!-- 49 -->
<g id="node48" class="node">
<title>49</title>
<ellipse fill="none" stroke="#000000" cx="2008.4925" cy="-18" rx="87.1846" ry="18"/>
<text text-anchor="middle" x="2008.4925" y="-14.3" font-family="Times,serif" font-size="14.00" fill="#000000">leaf=&#45;0.00999999978</text>
</g>
<!-- 37&#45;&gt;49 -->
<g id="edge47" class="edge">
<title>37&#45;&gt;49</title>
<path fill="none" stroke="#0000ff" d="M2056.8533,-86.9735C2048.2653,-74.7252 2036.7604,-58.3165 2027.1266,-44.5766"/>
<polygon fill="#0000ff" stroke="#0000ff" points="2029.7223,-42.1819 2021.1156,-36.0034 2023.9908,-46.2006 2029.7223,-42.1819"/>
<text text-anchor="middle" x="2077.9925" y="-57.8" font-family="Times,serif" font-size="14.00" fill="#000000">yes, missing</text>
</g>
<!-- 50 -->
<g id="node49" class="node">
<title>50</title>
<ellipse fill="none" stroke="#000000" cx="2198.4925" cy="-18" rx="84.485" ry="18"/>
<text text-anchor="middle" x="2198.4925" y="-14.3" font-family="Times,serif" font-size="14.00" fill="#000000">leaf=0.00749999983</text>
</g>
<!-- 37&#45;&gt;50 -->
<g id="edge48" class="edge">
<title>37&#45;&gt;50</title>
<path fill="none" stroke="#ff0000" d="M2094.6712,-88.019C2114.6082,-74.5731 2142.6504,-55.661 2164.5661,-40.8806"/>
<polygon fill="#ff0000" stroke="#ff0000" points="2166.6027,-43.7287 2172.9364,-35.2355 2162.6887,-37.9252 2166.6027,-43.7287"/>
<text text-anchor="middle" x="2149.4925" y="-57.8" font-family="Times,serif" font-size="14.00" fill="#000000">no</text>
</g>
<!-- 51 -->
<g id="node52" class="node">
<title>51</title>
<ellipse fill="none" stroke="#000000" cx="2452.4925" cy="-18" rx="84.485" ry="18"/>
<text text-anchor="middle" x="2452.4925" y="-14.3" font-family="Times,serif" font-size="14.00" fill="#000000">leaf=0.00153846154</text>
</g>
<!-- 40&#45;&gt;51 -->
<g id="edge51" class="edge">
<title>40&#45;&gt;51</title>
<path fill="none" stroke="#0000ff" d="M2557.5309,-88.8399C2537.5904,-75.3916 2508.9567,-56.0805 2486.6203,-41.0164"/>
<polygon fill="#0000ff" stroke="#0000ff" points="2488.3409,-37.9553 2478.0932,-35.2656 2484.4269,-43.7588 2488.3409,-37.9553"/>
<text text-anchor="middle" x="2559.9925" y="-57.8" font-family="Times,serif" font-size="14.00" fill="#000000">yes, missing</text>
</g>
<!-- 52 -->
<g id="node53" class="node">
<title>52</title>
<ellipse fill="none" stroke="#000000" cx="2642.4925" cy="-18" rx="87.1846" ry="18"/>
<text text-anchor="middle" x="2642.4925" y="-14.3" font-family="Times,serif" font-size="14.00" fill="#000000">leaf=&#45;0.00999999978</text>
</g>
<!-- 40&#45;&gt;52 -->
<g id="edge52" class="edge">
<title>40&#45;&gt;52</title>
<path fill="none" stroke="#ff0000" d="M2593.8368,-87.3943C2602.5433,-74.9767 2614.3533,-58.1329 2624.1576,-44.1498"/>
<polygon fill="#ff0000" stroke="#ff0000" points="2627.082,-46.0754 2629.9572,-35.8782 2621.3505,-42.0567 2627.082,-46.0754"/>
<text text-anchor="middle" x="2622.4925" y="-57.8" font-family="Times,serif" font-size="14.00" fill="#000000">no</text>
</g>
</g>
</svg>
